/* XPM */
static const char *detroit_D[] = {
/* columns rows colors chars-per-pixel */
"100 100 8 1 ",
"  c #000000",
". c #0B0B0B",
"X c #181818",
"o c #2E2E2E",
"O c #5F5F5F",
"+ c #ACACAC",
"@ c #B2B2B2",
"# c #949494",
/* pixels */
"#+@@+@@@@+#+@@#XO+@@#++@+++@@@#++@+@@@@@#++@@@@@@@+#+@@+@@@@+#+@@+@+@@@#+@@+@@@@@#++@+@@@@@#++@++++@",
"#+@@@@@@@+#+@@+O.O#@#++@++@@@@#++@++@@@@#++@@@+@@@+#+@@++@@@+#+@@@@+@@@#+@@++@@@@#++@+++@@@#++@@++@@",
"#+@@+++@@+#+@@@#X o##++@@++@@@#++@@++@@@##+@@+++@@+#+@@+++@@+#+@@@++@@@#+@@@++@@@#++@@++@@@#++@@++@@",
"#+@@+++@@+#+@@++O. XO+@@@++@@@#++@@++@@@##+@@++@@@+#+@@+++@@+#+@@@++@@@#+@@+++@@@#++@@++@@@#++@@++@@",
"#+@@@++@@+#+@@+++o  .o#+@++@@@#++@@++@@@#++@@+++@@+#+@@@++@@+#+@@@+##@@#+@@+++@@@#++@++++@@#++@++++@",
"#+@@@@+@@+#+@@++@#X   .O#+@++@#++@@@+@@@#++@@++@@@+#+@@++++@+#@@#Oo.o+@#+@@+++@@@#++@+++++@#++@+++@@",
"#+@@@@++@+#+@@+@+@#.    XO#+@@#++@@@@++@#++@@@@++@+#+@@@@++@+##OX.  .O@#+@@@@++@@#++@@@+++@#++@+@@++",
"#+@@@@++@+#+@@@@++@O.     XO#+#++@@@@++@#++@@@+++@+#+@@@@@+#OX.      o##+@@@@++@@#++@@@++@@#++@@@@++",
"#+@@@@@@@+#+@@@@@@@@O.      .oo#+@@@@@@@#++@@@++@@+#@@+##Oo.          O#+@@@@@@@@#++@@@@@@@#++@@@@@@",
"#+@@@@@@@+#+@@@@@@@@#O.        .oOO##+@@#++@@@@@@+#OOOoX.             .O+@@+@@@@@#++@+@@@@@#++@+@@@@",
"#+@@++@@@+#+@@++@@@@#+O.           ..ooOOOOOOOOOooX.                   X#@@++@@@@#++@+++@@@#++@+++@@",
"#+@@+++@@+#+@@+++@@@#++#X                                               o#@+++@@@#++@@++@@@#++@+++@@",
"#+@@+++@@+#+@@+++@@@#+@@#o.                                              o+@++@@@#++@@++@@@#++@+++@@",
"#+@@+++@@+#+@@+++@@@#++@@+OX                                              o+++@@@#++@+++@@@#++@@+++@",
"#+@@+++@@+#+@@+++@@@#++@+@@#o.                                             o#@@+@#++@+++@@@#++@@++@@",
"#+@@@@++@+#+@@@@++@@#++@@@@@+#o.                                            o#@+@#++@@@@@@@#++@@@@++",
"#+@@@@@@@+#+@@@@++@@#++@+@++@@##OX.                         ..ooX            o#@@#++@@@@++@#++@+@@++",
"#+@@@@@@@+#+@@@@@@@@#++@+@@@@@#+@+#OX                   .oOO##++#X            .O+#++@@@@++@#++@+@@@@",
"#+@@@@@@@+#+@@@@@@@@#++@+@@@@@#++@@+o     oooXX..     XO#+@@+#+@@#X            .oO++@+@@@@@#++@+@@@@",
"#+@@++@@@+#+@@++@@@@#++@+++@@@#++@#o     o#@++###O.  o#@@@@@+#+@@@O.             .O+@+++@@@#++@@++@@",
"#+@@+++@@+#+@@+++@@@#++@@++@@@#++#X     .#+@@++@#X  o+@+++@@+#+@@++O.             o+@@++@@@#++@@++@@",
"#+@@+++@@+#+@@+++@@@#++@@++@@@#+#o     .O++@@++O.   O@@+++@@+#+@@+++O            X#@@@++@@@#++@@++@@",
"#+@@+++@@+#+@@+++@@@#++@@++@@@##o      O#++@@+O.   o+@@+++@@+#+@@+++#.           O+@@@++@@@#++@++++@",
"#+@@+@+@@+#+@@+@+@@@#++@+@+@@@#o      o+##+@@#.    O+@@+@+@@+#+@@+@@#.          o#+@@@@@@@@#++@+@@@@",
"#+@@@@++@+#+@@@@+@@@#++@@@++@@O      .#@#++@#X    .#+@@@@++@+#+@@@@@#.          O#++@+@+@@@#++@@@@++",
"#+@@@@++@+#+@@@@++@@#++@@@++@#X      .o###++O     X#+@@@@++@+#+@@@@@#.         .##++@+@+@+@#++@@@@++",
"#+@@@@@@@+#+@@@@@@@@#++@@@@@+o         ..ooo.     O#+@@@@@@@+#+@@@@@#.         X+#++@@@@@@@#++@@@@+@",
"#+@@@@@@@+#+@@+@@@@@#++@+@@@#.                   .O#+@@@@@@@+#+@@+@@#.         X+#++@+@@@@@#++@+@@@@",
"#+@@@+@@@+#+@@++@@@@#++@++++O                    X##+@@++@@@+#+@@@+@#.         X+#++@+++@@@#++@@++@@",
"#+@@+++@@+#+@@+++@@@#++@@++#X       ..X....      X##+@@+++@@+#+@@@++#.         X+#++@@++@@@#++@+++@@",
"#+@@+++@@+#+@@+++@@@#++@@++O       .O#####X      o##+@@+++@@+#+@@@++#.         X+#++@@++@@@#++@+++@@",
"#+@@@++@@+#+@@+++@@@#+@@@++o       .#@@@##X      o##+@@+++@@+#+@@@++#.         X+#++@+++@@@#++@++++@",
"#+@@@@@@@+#+@@+@++@@#++#Ooo.       .#@@@##X      o##+@@@@@@@+#+@@+@@#.         X+#++@+++@@@#++@+@@+@",
"#+@@@@++@+#+@@@@++@@##o.           .#@+@##X      XO#+@@@@++@+#+@@@@+O.         X+#++@+@@@+@#++@@@+++",
"#+@@@@++@+#+@@@@++@+O.             .#@+@##X       .oO##+@@@@+#++##OX.          X+#++@@@@++@#++@@@@++",
"#+@@@@@@@+#+@@@@@@+o.              .#@@@##X          .XooOOOOoooX.             X+#++@@@@@@@#++@@@@@@",
"#+@@+@@@@+#+@@+@@+O                .#@@@##X                                    X+#++@+@@@@@#++@+@@@@",
"#+@@+++@@+#+@@++@O                 .#@@@##o                                    X+#++@+++@@@#++@+++@@",
"#+@@+++@@+#+@@++#X    ..XoX.       .#@@@##o      ..                ..          X+#++@@++@@@#++@+++@@",
"#+@@+++@@+#+@@++O  .XOO##+#O       .#@@@##X      o#OoX.         .XoO#.         X+#++@@++@@@#++@@++@@",
"#+@@@++@@+#+@@@#X.o##+@@@+@#.      .#@@@##.      O+#+##OOOooooOO##+@+o         X+#++@+++@@@#++@@+++@",
"#+@@@@@@@+#+@@@+O#+@#++@+@@#.      .#@@@##.      O+#+@@@@++++#+@@@@@+o         X+#++@+@@@@@#++@+@@@+",
"#+@@@@++@+#+@@@@@@@@#++@@@@#.      .#@+@##.      O+#+@@@@@@@+#+@@@@@+X         X+#++@@@@+@@#++@@@@++",
"#+@@@@++@+#+@@@@++@@#+@@+#Oo       .#@+@##.      O+#+@@@@++@+#+@@@@@+o         X+#++@@@@++@#++@+@@++",
"#+@@@@@@@+#+@@@@@@@@#+#Oo.         .#@+@##.      O+#+@@@@@@@+#+@@@@@+o         X+#++@+@@@@@#++@@@@@@",
"#+@@+@@@@+#+@@+@@@@@#OX            .#@@@##.      o##+@@+@@@@+#+@@@@@@o         X+#++@++@@@@#++@++@@@",
"#+@@++@@@+#+@@++@@@+o              .#@@@##X      o##+@@+++@@+#+@@@+@@o         X+#++@+++@@@#++@@++@@",
"#+@@+++@@+#+@@+++@#o               .#@@@##X      o##+@@@++@@+#+@@@++@o         X+#++@+++@@@#++@@++@@",
"#+@@+++@@+#+@@++++o                .#@@@#O.      o+###OOOoooooOO###+@O         X+#++@@++@@@#++@+++@@",
"#+@@+++@@+#+@@+++O                 .#@@@#O.      XOoX.           .oO#o         X+#++@++++@@#++@++++@",
"#+@@@@@@@+#+@@@@#X    .XX.         .#@@@#O.                         ..         X+#++@+@@@@@#++@+@@@@",
"#+@@@@++@+#+@@@+O   XO####OX       .#@+@#O                                     X+#++@@@@+@@#++@@@@++",
"#+@@@@++@+#+@@@+X .O#+@@@@@O       .#@+@#O.             ..XXX.X..              X+#++@@@@@@@#++@@@@++",
"#+@@@@@@@+#+@@@+OoO@#++@@@@O       .#@@@#O.         .oOO###+#####OOo.          X+#++@@@@@@@#++@@@@@@",
"#+@@@@@@@+#+@@+@++@@#++@@@@O       .#@@@+O..      oO#++@@@@@+#+@@@@+O.         X+#++@@@@@@@#++@++@@@",
"#+@@@++@@+#+@@+++@@@#++@@+@O       .#@@@##.      .##+@++++@@+#+@@++@#.         X+#++@@++@@@#++@+++@@",
"#+@@+++@@+#+@@+++@@@#++@@++O       .#@@@##.      X##+@@+++@@+#+@@+++#.         X+#++@+++@@@#++@@++@@",
"#+@@@++@@+#+@@+++@@@#++@@++O       .#@@@##.      X##+@@+++@@+#+@@+++#.         X+#++@+++@@@#++@@++@@",
"#+@@@++@@+#+@@+++@@@#++@++@O       .O#++Oo       o##+@@+++@@+#+@@++@#.         X+#++@+++@@@#++@@+++@",
"#+@@@@@+@+#+@@@@@+@@#++@+@@O         .oX.        o##+@@@@@+@+#+@@@@@#.         X+#++@+@@@@@#++@@@@@@",
"#+@@@@++@+#+@@@@++@@#+@@@@@O                     O+#+@@@@++@+#+@@@@@#.         X+#++@+@+++@#++@@@@++",
"#+@@@@++@+#+@@@@++@@#+@@@@@O                     O+#+@@@@++@+#+@@@@@#.         X+#++@@@@++@#++@@@@++",
"#+@@@@@@@+#+@@@@++@@#++@@@@O       .Xooo.        O+#+@@@@@@@+#+@@@@@#.         X+#++@@@@@@@#++@@@@+@",
"#+@@+@@@@+#+@@+@@@@@#++@++@O       o++@+#o      .#+#+@@+@@@@+#+@@+@@#.         X+#++@++@@@@#++@++@@@",
"#+@@@+@@@+#+@@+++@@@#++@+++O      .O+@@@#O.     X++#+@++++@@+#+@@++@#.         X+#++@@++@@@#++@@++@@",
"#+@@+++@@+#+@@+++@@@#++@@++O      X#+@@@#O.     O@+#+@@+++@@+#+@@+++#.         X+#++@@++@@@#++@@++@@",
"#+@@+++@@+#+@@+++@@@#++@+++o      O++@@@#O.    .#@+#+@++++@@+#+@@+++#.         X+#++@@++@@@#++@@++@@",
"#+@@+++@@+#+@@+++@@@#++@+@#X     .#@+@@@#O     o+@+#+@@+++@@+#+@@++@#.         X+#++@+++@@@#++@@+++@",
"#+@@@@@+@+#+@@@@@+@@#++@@@#.     O+@@@@@#o    .#@@+#+@@@@@+@+#+@@@@@#.         X+#++@+@@@@@#++@@@@@@",
"#+@@@@++@+#+@@@@++@@#++@+@O     o#@@@@@@#X.   O+@@+#+@@@@++@+#+@@@@@#.         X+#++@+@@@@@#++@@@@+@",
"#+@@@@++@+#+@@@@++@@#++@@#X    .#@@@@@@@O    o#@+@+#+@@@@++@+#+@@@@@#.         X+#++@@@@@+@#++@+@+@+",
"#+@@@@@@@+#+@@@@@@@@#++@+O    .O+@@@@@@#X   X#@@@@+#+@@@@@@@+#+@@@@@#.         .##++@@@@@@@#++@+@@@@",
"#+@@@@@@@+#+@@+++@@@#++@#X   .O++@@@@@+o   X#@@@@@+#+@@+@@@@+#+@@@+#o           O#++@++@@@@#++@@+@@@",
"#+@@+++@@+#+@@+++@@@#+++o   .O#++@@++#o   o#@+++@@+#+@@+++@@+#+@+#o.            X#++@@++@@@#++@@++@@",
"#+@@+++@@+#+@@+++@@@#++O   XO@#+@@+#OX   .O##++@@@+#+@@+++@@+#+#o.               o++@@++@@@#++@@++@@",
"#+@@+++@@+#+@@+++@@@#+#. .o#@@##OOoX       .XoO##++#@@@+++@@+#O.                 .#+@@++@@@#++@@++@@",
"#+@@@++@@+#+@@+++@@@#++#O#++#OX.               ..ooO#+@@++@@#o                    X#@+++@@@#++@++++@",
"#+@@@@@+@+#+@@@@@+@@#+@@@@#o.                       .oO#@@+O.                    .XO+@@@++@#++@@@@@+",
"#+@@@@++@+#+@@@@++@@#+@@+OX                            XO#O.                 .XoOO#+@@@@@@@#++@+@@+@",
"#+@@@@@+@+#+@@@@++@@#+@#o                                ..                .oO#@@#++@@@@@+@#++@+@+++",
"#+@@@@@@@+#+@@@@@@@@#+#o                                                 XO#+@@@@#++@@@++@@#++@@@@@@",
"#+@@+@@@@+#+@@++@@@@##.                                                .O#@@@@@@@#++@+++@@@#++@@+@@@",
"#+@@+++@@+#+@@+++@@@OX                                               .oO+@@+++@@@#++@@++@@@#++@@++@@",
"#+@@+++@@+#+@@+++@@#o             .XooooX..                         .O+#++@@++@@@#++@@++@@@#++@@++@@",
"#+@@+++@@+#+@@+++@+o          .ooO##++++###OoX.                    o#@@#+@@+++@@@#++@@++@@@#++@@+++@",
"#+@@++@@@+#+@@++@@O.        XOO#+@@@@@@@#+@@++Oo.                 o#@@@#+@@+++@@@#++@+++@@@#++@++++@",
"#+@@@@@+@+#+@@@@@#o       XO#@#++@+@@@+@#++@@@@+#OX              o+@+@@#+@@+@@+@@#++@@@@++@#++@+@@@+",
"#+@@@@++@+#+@@@@@O      .o#@@@#++@@@@@+@#++@+@@@@@#Oo.          o+@++@@#+@@@@++@@#++@@@@+@@#++@+@@+@",
"#+@@@@@@@+#+@@@@+o     .O+@@@@#++@@@@@+@#++@+@@@+@+#+Oo.       o+@@@+@@#+@@@@@+@@#++@@@@@@@#++@@@@@@",
"#+@@@@@@@+#+@@@@#.    o#@@@@@@#++@+@@@@@#++@+@@@@@+#+@+OX     X#@@@@@@@#+@@@@@@@@#++@+@@@@@#++@@@@@@",
"#+@@++@@@+#+@@@+o    X#@++@@@@#++@++@@@@#++@++@@@@+#+@@@#O.  .#@@++@@@@#+@@++@@@@#++@++@@@@#++@@+@@@",
"#+@@+++@@+#+@@@#X   .O@@@++@@@#++@@++@@@#++@@+++@@+#+@@@++#X O+@@+++@@@#+@@+++@@@#++@+++@@@#++@@++@@",
"#+@@+++@@+#+@@@#.   O+@@@++@@@#++@@++@@@#++@@++@@@+#+@@+++@#O#+@@+++@@@#+@@@++@@@#++@@++@@@#++@@++@@",
"#+@@+++@@+#+@@@O   o#++@+++@@@#++@@++@@@#++@@+++@@+#+@@+++@@+#+@@+++@@@#+@@+++@@@#++@@++@@@#++@@+++@",
"#+@@+@+@@+#+@@+o  X##++@+++@@@#++@+@@@@@##+@@+++@@+#+@@+++@@+#+@@+++@@@#+@@+++@@@#++@+@@@@@#++@+++@@",
"#+@@@@++@+#+@@#X .O@#++@@@@+@@#++@@@@@+@#++@@@@@+@+#+@@@@++@+#+@@@@++@@#+@@@@@+@@#++@@@@++@#++@+@@@+",
"#+@@@@@@@+#+@@#. O+@#++@+@++@@#++@@@@@+@#++@@@@++@+#+@@@@++@+#+@@@@++@@#+@@@@++@@#++@@@@+@@#++@@@@++",
"#+@@@@@@@+#+@@O X#@@#++@@@@@@@#++@@@@@@@#++@+@@++@+#+@@@@@+@+#+@@@@@+@@#+@@@@@@@@#++@@@@@@@#++@@@@@+",
"#+@@@@@@@+#+@@O.O@@@#++@@@@@@@#++@+@@@@@#++@@@@@@@+#+@@@@@@@+#+@@@@@@@@#+@@@@@@@@#++@+@@@@@#++@@@@+@",
"#+@@++@@@+#+@@#o+@@@#++@++@@@@#++@++@@@@#++@@+@@@@+#+@@++@@@+#+@@++@@@@#+@@++@@@@#++@++@@@@#++@@+@@@"
};
