/* XPM */
static const char *detroit_D[] = {
/* columns rows colors chars-per-pixel */
"64 64 256 2 ",
"   c black",
".  c #010101",
"X  c #020202",
"o  c gray1",
"O  c #040404",
"+  c gray2",
"@  c #060606",
"#  c #070707",
"$  c gray3",
"%  c #090909",
"&  c gray4",
"*  c #0B0B0B",
"=  c #0C0C0C",
"-  c gray5",
";  c #0E0E0E",
":  c gray6",
">  c #101010",
",  c #111111",
"<  c gray7",
"1  c #131313",
"2  c gray8",
"3  c #151515",
"4  c #161616",
"5  c gray9",
"6  c #181818",
"7  c #191919",
"8  c gray10",
"9  c #1B1B1B",
"0  c gray11",
"q  c #1D1D1D",
"w  c #1E1E1E",
"e  c gray12",
"r  c #202020",
"t  c gray13",
"y  c #222222",
"u  c #232323",
"i  c gray14",
"p  c #252525",
"a  c gray15",
"s  c #272727",
"d  c #282828",
"f  c gray16",
"g  c #2A2A2A",
"h  c gray17",
"j  c #2C2C2C",
"k  c #2D2D2D",
"l  c gray18",
"z  c #2F2F2F",
"x  c gray19",
"c  c #313131",
"v  c #323232",
"b  c gray20",
"n  c #343434",
"m  c #353535",
"M  c gray21",
"N  c #373737",
"B  c gray22",
"V  c #393939",
"C  c #3A3A3A",
"Z  c gray23",
"A  c #3C3C3C",
"S  c gray24",
"D  c #3E3E3E",
"F  c #3F3F3F",
"G  c gray25",
"H  c #414141",
"J  c gray26",
"K  c #434343",
"L  c #444444",
"P  c gray27",
"I  c #464646",
"U  c gray28",
"Y  c #484848",
"T  c #494949",
"R  c gray29",
"E  c #4B4B4B",
"W  c #4C4C4C",
"Q  c gray30",
"!  c #4E4E4E",
"~  c gray31",
"^  c #505050",
"/  c #515151",
"(  c gray32",
")  c #535353",
"_  c gray33",
"`  c #555555",
"'  c #565656",
"]  c gray34",
"[  c #585858",
"{  c gray35",
"}  c #5A5A5A",
"|  c #5B5B5B",
" . c gray36",
".. c #5D5D5D",
"X. c gray37",
"o. c #5F5F5F",
"O. c #606060",
"+. c gray38",
"@. c #626262",
"#. c gray39",
"$. c #646464",
"%. c #656565",
"&. c gray40",
"*. c #676767",
"=. c #686868",
"-. c DimGray",
";. c #6A6A6A",
":. c gray42",
">. c #6C6C6C",
",. c #6D6D6D",
"<. c gray43",
"1. c #6F6F6F",
"2. c gray44",
"3. c #717171",
"4. c #727272",
"5. c gray45",
"6. c #747474",
"7. c gray46",
"8. c #767676",
"9. c #777777",
"0. c gray47",
"q. c #797979",
"w. c gray48",
"e. c #7B7B7B",
"r. c #7C7C7C",
"t. c gray49",
"y. c #7E7E7E",
"u. c gray50",
"i. c #808080",
"p. c #818181",
"a. c gray51",
"s. c #838383",
"d. c #848484",
"f. c gray52",
"g. c #868686",
"h. c gray53",
"j. c #888888",
"k. c #898989",
"l. c gray54",
"z. c #8B8B8B",
"x. c gray55",
"c. c #8D8D8D",
"v. c #8E8E8E",
"b. c gray56",
"n. c #909090",
"m. c gray57",
"M. c #929292",
"N. c #939393",
"B. c gray58",
"V. c #959595",
"C. c gray59",
"Z. c #979797",
"A. c #989898",
"S. c gray60",
"D. c #9A9A9A",
"F. c #9B9B9B",
"G. c gray61",
"H. c #9D9D9D",
"J. c gray62",
"K. c #9F9F9F",
"L. c #A0A0A0",
"P. c gray63",
"I. c #A2A2A2",
"U. c gray64",
"Y. c #A4A4A4",
"T. c #A5A5A5",
"R. c gray65",
"E. c #A7A7A7",
"W. c gray66",
"Q. c #A9A9A9",
"!. c #AAAAAA",
"~. c gray67",
"^. c #ACACAC",
"/. c gray68",
"(. c #AEAEAE",
"). c #AFAFAF",
"_. c gray69",
"`. c #B1B1B1",
"'. c #B2B2B2",
"]. c gray70",
"[. c #B4B4B4",
"{. c gray71",
"}. c #B6B6B6",
"|. c #B7B7B7",
" X c gray72",
".X c #B9B9B9",
"XX c gray73",
"oX c #BBBBBB",
"OX c #BCBCBC",
"+X c gray74",
"@X c gray",
"#X c gray75",
"$X c #C0C0C0",
"%X c #C1C1C1",
"&X c gray76",
"*X c #C3C3C3",
"=X c gray77",
"-X c #C5C5C5",
";X c #C6C6C6",
":X c gray78",
">X c #C8C8C8",
",X c gray79",
"<X c #CACACA",
"1X c #CBCBCB",
"2X c gray80",
"3X c #CDCDCD",
"4X c #CECECE",
"5X c gray81",
"6X c #D0D0D0",
"7X c gray82",
"8X c #D2D2D2",
"9X c LightGray",
"0X c gray83",
"qX c #D5D5D5",
"wX c gray84",
"eX c #D7D7D7",
"rX c #D8D8D8",
"tX c gray85",
"yX c #DADADA",
"uX c gray86",
"iX c gainsboro",
"pX c #DDDDDD",
"aX c gray87",
"sX c #DFDFDF",
"dX c gray88",
"fX c #E1E1E1",
"gX c #E2E2E2",
"hX c gray89",
"jX c #E4E4E4",
"kX c gray90",
"lX c #E6E6E6",
"zX c #E7E7E7",
"xX c gray91",
"cX c #E9E9E9",
"vX c #EAEAEA",
"bX c gray92",
"nX c #ECECEC",
"mX c gray93",
"MX c #EEEEEE",
"NX c #EFEFEF",
"BX c gray94",
"VX c #F1F1F1",
"CX c gray95",
"ZX c #F3F3F3",
"AX c #F4F4F4",
"SX c gray96",
"DX c #F6F6F6",
"FX c gray97",
"GX c #F8F8F8",
"HX c #F9F9F9",
"JX c gray98",
"KX c #FBFBFB",
"LX c gray99",
"PX c #FDFDFD",
"IX c #FEFEFE",
"UX c white",
/* pixels */
"`.).).`.R.P.]._.)._.(.J./.'._.).`.W.L.'._.)._.).H.^.'.).).`.W.P.'._.)._.).L.!.'._.)._.Q.K.'._.)._.).K.~.B.S 1.`.!.J.`.`.).)._.P.",
"`.~.(.`.R.P.].(.~._.(.J./.'.~./.`.W.L.].).~._.).H.^.'.~./.`.W.P.'.).!._.).L.!.].^./._.Q.K.].).!._.`.K.r.k b F.'.!.J.'._.!.)._.P.",
"`.!./.`.R.P.]./.!._.(.J./.'.!./.`.W.L.`.L.R.'.`.J.^.'.!.^.`.W.P.'.).Q._.).L.!.].!.^._.Q.K.].).~.`.J. .4 > 0./.`.!.J.'.).Q.)._.P.",
"_.(.).`.R.P.'.).(._.(.J.^._.(.).`.W.I.C.V W y.K.H.(.`.(.).`.W.P.`.).(._.).L.!.`.(.)._.Q.K.]._.P.4.z @ # } Q.).`.!.J.`.).(.)._.P.",
")._.`.`.R.P.`.).`.`.(.J.^._.)._._.W.G.) .   = k ( j.R._.].].Q.I.`.)._.`.).L.Q._._.'.'.~.G.F.3.V &   X U Y._._.`.!.J._.)._._._.P.",
"_._._.`.R.P.'.)._._.(.J.^._._._.`.Q.-.<         o 2 M } e.V.F.H.`.`.'.].`.I.^.'.^.T.A.9.L u %     o b A.'._._.`.!.J.`._._._._.P.",
"`.).).`.R.P.]._.(._.(.J./.'.).).'.b.u                   & q z F } <.0.0.w.6.8.$.R b r *         + J z.~.'.).).`.!.J.`.`.).)._.P.",
"`.Q./.`.R.P.]./.Q._.(.J./.'.!.(.H.A .                           X @ % % % & % O               ; ) L.P.!.'.~.~.`.!.J.'.).Q.)._.P.",
"`.~.(.`.R.P.].(.~._.(.J./.`./.J.I O                                                       o s 5.Q.`.K.!.'.^./.`.!.J.`.).~.)._.P.",
").).).`.R.P.`.).)._.(.J.^.'.S.J O                                                     o w ' V._.`.).K.!.`.).).`.!.J._.).)._._.P.",
")._.`.`.R.P.`.).`.`.(.J.~.z.M o             w V p 6 * X                         O : h [ g.)._.`.`.).K.!._.).`.`.!.J._.)._.`._.P.",
"_._._.`.R.P.'._._._.(.C.;.e               8 i.!.m.b.w._ g @     o $ > 0 0 o     s e.I.Q.L.'._._._.).K.!.`._._.`.!.J.`._._._._.P.",
"`./.(.`.R.P.].)./.`.L.P &               ; >.(._.J.(.[.^.F.o.- + K 0.g.V.b.n     : ] U.~.K.]._./._.).K.!.'.(.(.`.!.J.`._./.)._.P.",
"`.Q./.`.R.P.]./.Q.`.Y.J .             $ { Y.`.).H.^.'.!.(.~.I   e 0.!.'.'.i.7     @ ~ H.L.].(.W._._.K.!.'.!.~.`.!.J.'.).W.)._.P.",
"_./.).`.R.P.].(./._._.i.4             y D.(._.).H.^.`./.(.'.a.1   6 9.)._.K.:.,     # ~ Z.].).^._.).K.!.'././.`.!.J.`.)./.)._.P.",
")._._.`.R.P.`.)._._.(.F.U             s L.`._.).H.^._.)._.'.P.b     y b.].U.U.E       & =.'.)._._.).K.!._.)._.`.!.J._.).)._._.P.",
")._.`.`.R.P.`.).`.`.(.L.5.$           a L.'.`.).H.^._._.`.`.Q./ X     V 9.;.` a         s Z._.`.`.).K.!._.).`.`.!.J._.)._._._.P.",
"`._._.`.R.P.]._._._.(.L.a.:           s P._._.).H.^.`._._.`.Q.5.-     . % #             O  .(._._.).K.!.'._.).`.!.J.`._._._._.P.",
"`.^.(.`.R.P.].(.~._.(.L.a.;           d L.^._.).H.^.'.^./.`.Q.j.0       . # % % #         u Z./.).).K.!.'.^./.`.!.J.'._.~.)._.P.",
"`.Q./.`.R.P.]./.!._.(.L.a.;           d K.!._.).H.^.'.!.^.`.W.n.a       > O.r.p.O.&       # 4./.`._.K.!.'.~.~.`.!.J.'.).Q.)._.P.",
"_.(.).`.R.P.'.).(._.(.L.a.;           s I.`.`.).H.^.`.(.).'.!.M.s       2 a.(.}.z.:         b 3.c.E.L.!.`.(.(.`.!.J.`._.(.)._.P.",
")._.`.`.R.P.`.).`._.(.L.a.;           4 <.S.!._.L.(.'.`.`.~.N.@.3       < y.~.'.l.:         X $ 3 S 4.E.`.)._.`.!.J._.)._._._.P.",
")._.`.`.R.P.`.).`.`.(.L.p.;             % u J ..@.9.w.,...J u $         1 u.~.].l.:                 , $.!._.`.`.!.J._.)._._._.P.",
"`.).).`.R.P.]._.)._.(.L.a.;                   X + % % @ X               4 s.^.[.l.:                   - -./.).`.!.J.`._.).)._.P.",
"`.!./.`.R.P.].(.!._.(.L.a.;           @ , +                 + , #       5 s.^.{.h.;         > s e > +   9 g./.`.!.J.'.).Q.)._.P.",
"`.!.(.`.R.P.].(.!._.(.L.a.;           h s.%.K j q 4 5 e j P #.e.x       ; q.^.[.h.:       + #.J.D.j.X.N < Q !.`.!.J.'.).!.)._.P.",
"_.).).`.R.P.'.).)._.(.L.a.;           V !._.~.L.j.z.b.C.K.^.Q.F.A       * 6.^.].l.:       - h.].`.`.L.K.a.9.~.`.!.J.`._.)._._.P.",
")._.`.`.R.P.`.).`.`.(.L.a.;           N W.`.'.`.K.(.'.`.'.'.W.D.D       & 5.^.'.l.:       @ ..D.~.`.L.~.'._.`.`.!.J._.)._._._.P.",
"_._._.`.R.P.'.)._._.(.L.a.;           P /._.`.).H.^.`._._.`.W.S.Z       = 8.^.].l.:         & e J q.C.~.`._._.`.!.J.`._._._._.P.",
"`.(.(.`.R.P.]._./._.(.L.a.;           P /.(.`.`.L.(.[._._.'.Q.B.x       : w.^.{.l.:               - F C.].).(.`.!.J.`._./.)._.P.",
"`.Q./.`.R.P.]./.Q._.(.L.a.;           ~ (.E.R.D.f.j.c.v.A.R.R.N.g       - 8.^.{.g.;                 X N S.~.~.`.!.J.'.).W.)._.P.",
"`.^.(.`.R.P.].(.^._.(.L.a.;           P 8.~ M i 8 2 2 9 i m E X.q       @ ;.^.[.j.:                   X I I.(.`.!.J.`._.^.)._.P.",
").)._.`.R.P.'.)._._.(.L.a.;           $ $                     + X       + &.^.].l.:         < m Y C 8 . * 7.`.`.!.J._.)._._._.P.",
")._.`.`.R.P.`.).`.`.(.L.a.;             . % 1 w e y y 7 : +             + *.^.'.l.:       X } E.(.W.s.J = R /.`.!.J._.)._.`._.P.",
"`._._.`.R.P.'._._._.(.L.s.:           & Y 7.c.S.v.F.J.V.s.*.F 5 .       @ ;.^.[.z.:       o >.].`._.P.L.e.g.).`.!.J.`._._._._.P.",
"`.^.(.`.R.P.].).^._.(.L.s.:           i G.).`._.J./.].(._.'.I.<.>       $ <.^.{.k.:       o ;.(.).).K.!.[.(./.`.!.J.'._.^.)._.P.",
"`.Q./.`.R.P.]./.Q._.(.L.s.:           d L.!._.).H.^.'.Q.^.`.!.j.9       $ 1.(.|.h.;       o -.~._._.K.!.'.!.~.`.!.J.'.).W.)._.P.",
"_./.).`.R.P.].).(._.(.L.s.:           s L.(._.).H.^.`.(.(.`.W.b.a       X n 6.s.( #       o ;._._.).K.!.`.(.(.`.!.J.`._./.)._.P.",
")._._.`.R.P.'.)._._.(.L.s.:           a L.`._.).J.~.).)._.`.W.V.c           $ * X         o :.'._.).K.!._.)._.`.!.J._.)._._._.P.",
")._.`.`.R.P.`.).`.`.(.L.s.:           s L.'.`.).H.^._._.`.`.W.F.J           % , & .       o :.].`.).K.!._.).`.`.!.J._.)._.`._.P.",
"`.).).`.R.P.]._.)._.(.L.s.:           s I._._.).H.^.'.).).`.W.L.}       X b 6.k.7.i       o ,.`._.).K.!.'._.).`.!.J.`.`.)._._.P.",
"`.!.(.`.R.P.].(.~._.(.L.d.>           d L.~._.).H.^.'.~./.`.W.U.t.-     @ =.(.}.^.` .     o *.^.)._.K.!.'.^.^.`.!.J.'._.!.)._.P.",
"`.!./.`.R.P.].(.!._.(.L.d.>           d K.~._.).H.^.'.!./.`.W.I.K.j     + &.^.]./.p.1     . ( Q._._.K.!.'.~.^.`.!.J.'.).Q.)._.P.",
"_.).).`.R.P.'.).)._.(.L.d.>           s L.)._.).H.^._.).).`.W.P.`.&.+   . ( ~.`.).E.K       n Y.`.).K.!.`.).).`.!.J.`.).)._._.P.",
")._.`.`.R.P.`.)._._.(.L.s.:           a L.`.`.).J.~.).).`.`.W.P.'.J.M     b Y.`._.'.l.q     4 l.].).K.!._.).`.`.!.J._.)._._._.P.",
"_._.`.`.R.P.'.)._.`.(.L.7.%           p K.].`.).H.^._._._.`.W.P.`.`.l.u   > r.'._.`.).<.;   . ( /._.K.!.`._._.`.!.J._._._._._.P.",
"`.(.).`.R.P.]._.(._.(.D.U             = Q h.!.`.J.^.'.(.).`.W.P.'._.).u.i . a k.)._.`.R.[ :   5 d.`.K.!.'.).(.`.!.J.`._.(.)._.P.",
"`.Q./.`.R.P.]./.Q._._.r.2               . 4 ~ n.H./.'.Q.^.`.Q.U.[.(.I.S. .*   y =.S.~.Q.F.3.0   z Z.L.!.'.~.~.`.!.J.'._.W.)._.P.",
"`.~.(.`.R.P.].(.^.`.F.N                     X e X.Y.].^.).`.F.y.5.[ C r - .     # i D Q ;.F.k.E z e.L.!.'.^./.`.!.J.`._.~.)._.P.",
").)._.`.R.P.`.).).).7.r - o                     & R D.!.x.| l 1 $ .                     % a #.Z.P.!.K.!.`.)._.`.!.J.`.).)._._.P.",
")._.`.`.R.P.`.).`._.R.k.u.o.v >                   o v Y 6 .                                 + x a.).L.!._.).`.`.!.J._.)._.`._.P.",
"_._._.`.R.P.'._._._.).K.(.`.I.a.Y 2                                                             7 :.D.~.`._._.`.!.J.`._._._._.P.",
"`./.(.`.R.P.].)./._.(.J./.'.)._.~.u.M &                                                           > X.W.].(./.`.!.J.'._./.)._.P.",
"`.Q./.`.R.P.]./.Q._.(.J./.'.Q.^.`.Q.V.=.7                           o > w k S J H c 0 - X           2 r.].!.~.`.!.J.'.).W.)._.P.",
"_./.(.`.R.P.].)./._.(.J.^.`./.(.`.W.P._.a.d                     # s } a.C.C.R.(.!.U.V.q.E t +         j F.).(.`.!.J.`._./.)._.P.",
")._._.`.R.P.`.)._._.(.J.^._.)._.`.W.L.'.`.c.j               > N 3.F.).].`.P.!._._.`.'.^.G.S.@.r       O [ ^._.`.!.J._.)._._._.P.",
")._.`.`.R.P.'.).`.`.(.J.^._._.`._.W.L.`.).`.v.f         , L w.A.'.`.`.`.).L.Q._._.`._.Q.K.].).v.F $     e V.'.`.!.J._.)._.`._.P.",
"`.)._.`.R.P.]._.)._.(.J.^.`._.).`.W.L.'._.).'.p.5   # M y.!.Q.I.'._.)._.).L.!.'._.)._.Q.K.'._.`.Y.[ #   O *.`.`.!.J.`._.)._._.P.",
"`.~.(.`.R.P.].(.~._.(.J./.'.^./.`.W.L.'.).~._./.o.q o.G.(.`.W.P.'.).~._.).L.!.].^./._.Q.K.].).~.`.Y.L X   C R.`.!.J.'._.~.)._.P.",
"`.Q./.`.R.P.]./.!._.(.J./.'.!./.`.W.L.].(.Q._._.V.c.(.^./.`.W.P.'.).Q._.).L.!.].!.^._.Q.K.].).Q.).`.x.d   w V.'.!.J.'.).Q.)._.P.",
"_.(.).`.R.P.'.).(._.(.J.^.`.(.).`.W.L.'.).(._.).J./.`.(.).`.W.P.`.).(._.).L.!.`.(.)._.Q.K.'.).(._._.L.w.5 = r.].!.J.`.).(.)._.P.",
")._.`.`.R.P.`.).`.`.(.J.^._.)._.`.W.L.`.)._._.).J.~.).)._.`.W.P._.)._.`.).L.Q._.).`._.Q.K.`.)._._.).K.E.o.$ | _.!.J._.)._._._.P.",
"_._.`.`.R.P.'.).`._.(.J.^._._._._.W.L.`.)._._.).J.~._._._.`.W.P.`.)._.`.).L.!.`._.`._.Q.K.'.)._._.).K.~.P.m K ^.!.J.`._._._._.P.",
"`.).).`.R.P.]._.)._.(.J./.'.).).`.W.L.'._.)._.).H.^.'.).).`.W.P.'._.)._.).L.!.]._.)._.Q.K.'._.)._.).K.!.[.q.| /.!.J.`.`.).)._.P."
};
