/* XPM */
static const char *forevernevermore[] = {
/* columns rows colors chars-per-pixel */
"64 64 249 2 ",
"   c #020102",
".  c #0A0204",
"X  c #040209",
"o  c #0B020B",
"O  c #0C0A0B",
"+  c #090906",
"@  c #12020D",
"#  c #13080A",
"$  c #13110F",
"%  c #0C0312",
"&  c #0C041C",
"*  c #0B0718",
"=  c #130314",
"-  c #190314",
";  c #14041B",
":  c #1A051C",
">  c #1C0A1C",
",  c #140A17",
"<  c #1A1518",
"1  c #21171C",
"2  c #200F19",
"3  c #0E0725",
"4  c #150423",
"5  c #1B0423",
"6  c #1D0A23",
"7  c #1C042C",
"8  c #1C082D",
"9  c #140829",
"0  c #1C0633",
"q  c #1A0939",
"w  c #150E2D",
"e  c #240928",
"r  c #271626",
"t  c #210534",
"y  c #230934",
"u  c #23053C",
"i  c #240A3A",
"p  c #290737",
"a  c #351B35",
"s  c #301531",
"d  c #282624",
"f  c #353035",
"g  c #1B0B44",
"h  c #1D0B56",
"j  c #1A1359",
"k  c #17134C",
"l  c #240444",
"z  c #260A43",
"x  c #2A0C44",
"c  c #220B4B",
"v  c #2B0D4C",
"b  c #27044C",
"n  c #310B4C",
"m  c #3A1845",
"M  c #250552",
"N  c #2A0454",
"B  c #2B0D53",
"V  c #2C045C",
"C  c #2C0C5C",
"Z  c #250957",
"A  c #31065F",
"S  c #310C5C",
"D  c #39095B",
"F  c #2E115B",
"G  c #271258",
"H  c #361557",
"J  c #22114A",
"K  c #1B1368",
"L  c #0C0D75",
"P  c #170E76",
"I  c #1B1274",
"U  c #1C147B",
"Y  c #161377",
"T  c #120F75",
"R  c #2C0563",
"E  c #230B63",
"W  c #2B0C64",
"Q  c #2D0C6A",
"!  c #260969",
"~  c #330661",
"^  c #3C0762",
"/  c #340B64",
"(  c #3B0B63",
")  c #320D6B",
"_  c #390F6A",
"`  c #2C1263",
"'  c #2D126B",
"]  c #25156A",
"[  c #331164",
"{  c #35116C",
"}  c #3A126C",
"|  c #3A1366",
" . c #330D71",
".. c #251474",
"X. c #2B1574",
"o. c #24147B",
"O. c #2C167A",
"+. c #2B1A7C",
"@. c #261A7B",
"#. c #351473",
"$. c #3B1472",
"%. c #3C1A73",
"&. c #341C7B",
"*. c #36197A",
"=. c #2C0B72",
"-. c #39227D",
";. c #37206E",
":. c #43075C",
">. c #412444",
",. c #413A4F",
"<. c #41156D",
"1. c #45176A",
"2. c #441A74",
"3. c #4C1C74",
"4. c #441C7B",
"5. c #451977",
"6. c #521D78",
"7. c #420B63",
"8. c #4C227B",
"9. c #49247A",
"0. c #532276",
"q. c #53237B",
"w. c #5A257C",
"e. c #5C2B7D",
"r. c #56297B",
"t. c #50256F",
"y. c #612B7E",
"u. c #524F50",
"i. c #6D666F",
"p. c #87827F",
"a. c #2D1E81",
"s. c #251B80",
"d. c #321D81",
"f. c #2E2082",
"g. c #3B2383",
"h. c #372486",
"j. c #0B1382",
"k. c #442482",
"l. c #4B2582",
"z. c #4D2B84",
"x. c #462C87",
"c. c #532682",
"v. c #532C85",
"b. c #5C2B83",
"n. c #5B2D8A",
"m. c #552A86",
"M. c #4B338D",
"N. c #5C338D",
"B. c #57368A",
"V. c #5C3C93",
"C. c #573691",
"Z. c #4F3693",
"A. c #632D83",
"S. c #682E85",
"D. c #643184",
"F. c #6A3385",
"G. c #64338C",
"H. c #6C358A",
"J. c #6D3A8C",
"K. c #653987",
"L. c #733C8D",
"P. c #74388B",
"I. c #633592",
"U. c #643C95",
"Y. c #6B3B93",
"T. c #693C98",
"R. c #743D92",
"E. c #793B91",
"W. c #5E4397",
"Q. c #62418C",
"!. c #77428E",
"~. c #644594",
"^. c #6C4293",
"/. c #644299",
"(. c #6C449A",
"). c #66499A",
"_. c #6C4C9C",
"`. c #684893",
"'. c #754293",
"]. c #7A4494",
"[. c #7D4996",
"{. c #72459A",
"}. c #7C459A",
"|. c #744B9D",
" X c #7D4B9C",
".X c #714897",
"XX c #6D529F",
"oX c #79519E",
"OX c #6A4AA1",
"+X c #734BA1",
"@X c #794BA3",
"#X c #6E50A0",
"$X c #7454A4",
"%X c #7C54A4",
"&X c #7C5CAC",
"*X c #7759A9",
"=X c #7E64B0",
"-X c #824B96",
";X c #824D9A",
":X c #814594",
">X c #85529D",
",X c #89539E",
"<X c #8455A2",
"1X c #8955A1",
"2X c #8B5BA5",
"3X c #875BA7",
"4X c #915DA9",
"5X c #855BB1",
"6X c #8B55A8",
"7X c #8D62AA",
"8X c #8461AB",
"9X c #9364AD",
"0X c #946AAD",
"qX c #9465AB",
"wX c #8364B2",
"eX c #8A65B3",
"rX c #8C6AB5",
"tX c #8C6BBA",
"yX c #8568B8",
"uX c #956CB3",
"iX c #996DB4",
"pX c #946AB6",
"aX c #8B72BB",
"sX c #9572B5",
"dX c #9B73B5",
"fX c #9573BB",
"gX c #9C74B9",
"hX c #9D7ABC",
"jX c #9879BB",
"kX c #A27CBD",
"lX c #A176BC",
"zX c #987AC3",
"xX c #9073C2",
"cX c #A47EC1",
"vX c #A87FC2",
"bX c #A381BE",
"nX c #998E9F",
"mX c #9C81C6",
"MX c #A583C2",
"NX c #A983C5",
"BX c #AB8AC6",
"VX c #AC8EC9",
"CX c #A789C7",
"ZX c #AE92CB",
"AX c #B294CC",
"SX c #B59CCE",
"DX c #B49BD2",
"FX c #B599D1",
"GX c #B7A1D3",
/* pixels */
"$ 1 u.i.p.f 1 f   < f + +               X +                         o @ @ - - -       . o @ % % 4 4 6 ; % X O , & * * 3 3 & % X ",
"+ 1 d <   . O .   + $                                             . @ @ - - - : O o o = : : 5 5 9 0 8 9 3 & & 3 3 & & 3 3 3 % % ",
"O d   + + $   + +   .   + +   +                                   o @ - - - : : : : 5 e y y i z c J J J g q q q q w w w w 3 * O ",
"< f O   +     + + +           +                           X . o . o = - - : 5 e e y i x v B B F ` ` ` ` ` G G j j k g g q w & % ",
"  + X X +   $     + + +             X X X X X         X o o = = = - : 5 e y y i x x v F F ` ' X.X.X.X...........K j j j j g w 3 ",
"O $   X X X @ o + + + + O O ,   o o o % o o o o o X o o = : : : e e e y i x v B F F F [ ' X.X.O.+.O.X.....o.o.o.K K K K K j k q ",
"O < < % = : = - : = : , 6 , r = : > 6 6 6 6 > > > > > e r s s e s p i z v S [ [ { [ { #.#.#.O.O.+.O.o...o.o.o.o.I I I I I K j k ",
"nXd   , r 6 e e a s a a a e >.a r s a a a a s s a a a a >.>.>.m m m n n H | #.$.#.{ ) #.*.*.O.O.X.O.....o.o.o.U U U Y P P P K j ",
"1 < $ # = > > % 2 2 r r r r r r # 2 r r 2 2 r s a s a m H H H m H H S / { #.#.#.#.#.#.$.$.$.5.5.$.$.#.#.O.O.O.O...o.o.P P Y Y Y ",
"f <   . X X X , X . X o o o o o   . O + X . @ - 5 : 5 t x n v x B F [ { { #.#.#.$.4.4.4.4.4.4.5.4.4.4.*.&.*.*.O.O.+.o.U U Y Y T ",
"d $ . . . o X                               o = 5 5 7 i v S S S C [ { { ) } $.2.9.8.c.m.m.c.q.8.c.l.l.k.4.*.*.*.&.d.a.o.U Y Y T ",
"    +                           +           + = 8 8 y x F [ [ / W ) { $.$.2.3.q.b.b.G.G.G.G.A.b.m.m.m.c.l.k.9.4.d.d.d.@.o.U U I ",
"f $   . # .   +                             o = 8 8 y x C { ) Q ) ) ) } <.3.b.b.H.H.J.R.R.L.J.J.G.G.N.n.m.z.l.k.k.g.d.&.+.@.U U ",
"nXu.+                                 +     @ : 8 y i v [ { #.{ ) ) } <.3.w.A.F.L.L.R.'.'.'.R.L.Y.Y.Y.G.N.m.c.l.l.x.g.-.d.a.s.U ",
"      + +   X                               % 5 7 7 i v C ) ) ) / } 2.3.w.b.F.R.R.R.].].'.'.L.J.Y.Y.Y.I.G.N.m.M.z.z.k.g.f.f.@.U ",
"          X +                             X & 8 7 y i v S ) ) ) / <.8.r.e.D.J.R.R.'.].[.'.R.J.H.H.G.G.I.I.N.N.N.v.z.k.-.&.+.@.I ",
"  + +                                   X % ; 5 7 7 i v / ) ) _ } 2.0.e.A.H.L.].].].[.[.R.Y.G.D.m.n.n.m.n.N.I.I.B.z.x.g.h.a.U T ",
"            X                         X % ; 4 7 7 7 i v / ) ) { <.3.w.A.F.L.R.].;X[.[.R.H.A.r.0.q.c.b.b.m.n.I.I.N.M.l.g.g.a.U T ",
"            X                   o X X % ; 4 5 7 7 7 u B / ) _ } 3.0.w.D.H.R.].}.}.'.J.D.A.r.w.0.e.A.A.b.b.n.I.U.V.B.z.k.g.a.@.U ",
"+   +       +                   . . o = : 5 5 5 7 t z B / ) ) } 3.q.e.F.L.'.}.;XR.H.A.e.y.D.G.F.J.J.J.H.Y.Y.Y.T.U.N.z.k.g.a.s.U ",
"<           +                   . . . @ @ = : 5 y i z C ) ) } <.6.w.S.J.R.].}.}.R.J.H.H.J.R.'.}.].'.R.R.{.|.+X+X(.U.v.x.g.a.s.U ",
"u.+     #     +                   . . . @ o ; 5 i i v C ) ) } <.3.w.F.L.E.L.L.R.'.'.[.[.[. X X@X X}.}. X@X%X%X%X|.).N.x.g.a.@.U ",
"u.+ . . #                         . o @ @ = ; 5 i z v W Q ) } 1.6.w.S.H.H.H.L.R.[.;X>X>X;X].R.R.R.'.}.@X%X%X%X3X*X+XU.M.h.a.U Y ",
"d   #   .   +                   . o o = = ; 4 8 i z v ` Q ) } 1.w.A.S.S.S.H.].;X1X1X,X-XL.F.A.A.A.G.Y.}. X%X&XeX8X$X/.Z.h.@.U T ",
"                                . o % ; 4 4 5 e y x B W W { <.3.0.A.S.A.F.].>X1X0X2X1X}.S.6.2.$.*.5.l.Y. X<XwXaXaX=X$XV.x.@.L j.",
"                                o @ = ; ; 5 7 7 y x C R ) } <.8.w.y.F.H.L.;X2X4X9X<X[.H.q.2.$.) { { %.n..X<XrXxXxXyX*X/.M.a.L L ",
"                            X X o o = = : 5 7 0 z B W R ) } 3.q.y.A.F.L.[.1X4X9X9X>XR.A.q.8.%.E j E ' k.T.5XtXfXtXwX*X/.M.f.L L ",
"X X                       X . o o o o o @ : 8 i x F W Q } 2.q.b.F.F.L.[.>X2X9X9X1X[.R.Y.U.U.x.] j j ] &.C.@X5XwX&X$X_.V.M.h.T L ",
"+                         . o o % o . . o : 8 i v F Q ) $.8.r.D.P.L.].;X<X2X9XiX9X1X}.@X5XtX*XM.j j K ' k.I.{.|._.(.(.V.Z.h.Y T ",
"                        . o o = % o . . o ; 8 q z C W ) <.q.e.F.L.].;X>X2X9XiXgX9X;X'.{.5XxXyX$X;.` E ! $.c.G.Y./.U.Y.N.C.x.I L ",
"                        . o = = o o o o = 4 8 0 l B W ) 2.r.A.J.!.:X>X1X7XuXiXiX1XR.A.D.Y.@X$X(.m.9.%.%.5.c.N.T.(.T.(.U.V.x.I L ",
"                        . o = = . o o % ; 4 8 8 u B W _ 5.r.D.L.:X;X1X2X7XpXuX7X<X'.H.H.J.^.^.J.T.n.z.v.B.N.U.+XOX{.+X(./.Z.@.T ",
"        +     +           . o % o o o = , : : : y c C ) 3.A.H.L.[.>X2X9XiXqX4X1X;X[.[. X<X2X<X X|.(.Y.Y.Y.Y.T.+X*X*X$XOXU.M.x.-.",
"  +     +                 + ; 4 ; ; 4 4 4 4 ; ; 0 c C { q.G.L.[.>X1X7X9XuX9X2X1X>X1X4X9XiXgXpX7X5X%X|..X(.{.@X5XwXwX&X+XU.C.M.x.",
"  O       X + X         X % 8 q 0 q g g q 0 4 5 t c C #.c.H.R.[.<X2X7X9X7X7X2X2X9XiXlXvXNXNXcXgXpX3X@X X@X@X5XxXzXtX&XOX/.V.V.V.",
"r f O o                 o 4 g Z h Z W ' C c 0 8 u v ` %.b.H.L.[.>X<X2X7X7X7X7X9XgXkXNXNXNXMXhXfXuX2X<X<X<X&XrXzXzXyX#X/.~.).).).",
"f ,.< < O + O           % 0 c E E ! X.*.#.` c q z B ` 2.b.H.L.[.>X>X2X2X2X7X0XiXhXkXkXcXMXcXgXrX4X<X<X3XeXeXtXzXaX*X).~._.$X$X_.",
"  O                     % 0 Z ! E ! =.*.*.{ C c v B W 2.b.H.R.[.>X1X2X2X2X7XuXgXkXcXMXMXcXhXuX3X<X<X3X7XeXeXtXxXwX$X#X*XwXwX&X$X",
"        +               o 8 Z ! E !  .#.#.' W Z v C W %.b.H.L.[.;X>X1X2X7X9XiXlXcXNXvXcXlXdX9X2X2X7XpXpXpXeXtXtX8X8XwXyXyX&X$X$X",
"+   +   +               X 4 c Q E W { { { R R W B C W $.b.F.P.'.;X;X>X1X4X0XdXlXlXcXlXgXiXiXiXiXuXdXdXiXpXtXtXrX8XwXtXyX*X).).#X",
"X   o   % X   +           O q R ! Q { } } } ) W ` W W $.q.D.J.'.].;X1X1X4X9XiXgXlXlXlXgXgXgXdXdXhXkXMXzXfXrXrXtXyXtXaXwXXXW.W.OX",
"* % % , r % X             X 9 Z ! Q { } 2.5.} C ` W W } 3.b.H.L.].[.>X1X2X9XiXgXgXgXgXgXgXkXhXhXbXMXCXcXfXtXtXtXtXrXrXwXXXW.W.W.",
"q w , % , X X X             & 0 E Q { $.5.l.9.%.` W W ) 2.w.D.P.L.].;X>X2X9XiXdXdXlXlXkXkXMXMXMXBXVXVXCXzXfXpXfXzXtXrXwX$X).W.V.",
"9 & %   X X   O             X * h W #. .} 2.9.5.' Q ! ) } 3.e.F.J.'.[.;X1X9XiXdXdXlXkXcXBXVXZXZXAXAXAXCXhXfXfXzXzXfXrXeX*X_.~.B.",
",.a     + X                     q B { ) Q ) { _ Q E ! Q { 2.0.y.D.J.].;X1X9XiXdXlXkXvXNXVXAXDXDXDXDXAXBXjXfXfXzXzXfXfXtX&XXX~.B.",
"i.u.+ +     O                   4 g W Q Q [ / R / W R R ) <.3.w.y.F.L.[.1X9XiXdXlXkXNXBXZXFXDXSXGXDXZXMXgXfXfXzXmXjXzXaX&X$X).Q.",
"< d   +     +                   o 9 h Q ' { { } 2.{ R R Q } 2.3.w.D.L.[.1X9XiXdXkXcXNXBXAXFXGXGXGXDXVXkXsXuXjXmXmXjXaXyX*X#X).~.",
"        X ,                       3 h ! E Z [ 4.r.2.) R Q { $.2.0.y.P.[.1X9XiXdXkXMXBXVXAXSXGXGXGXDXVXhXsXuXjXmXmXaXtX=X$X_.).~.",
"                          X X X     * g ! ! R H t.t.2.{ Q ) $.2.0.A.P.].,XqXiXdXcXMXNXVXAXSXSXSXFXAXBXgXuXsXjXhXzXaX=X*XXX_.W.Z.",
"                                    X 9 h ! Q [ D t.9.%.[ ) } } 6.b.H.].,X9XiXdXkXkXNXVXAXFXSXSXZXVXMXdXsXsXsXfXaXwX&X$X_.W.Z.x.",
"                                X     % q Z Q  .1.8.9.| Z C { _ 3.b.H.].;X2XuXdXkXkXMXBXAXAXAXAXVXCXbXdXsXfXfXrX7X%X%X+XU.M.g.O.",
"                                X     = q Z Q  .5.2.| v b C [ ) 2.w.H.].-X1X9XdXdXkXbXBXVXAXAXZXVXMXhXsXfXfXpXeX<X|.(.V.M.h.O.P ",
"                                  o ; 0 c Z C W ) V M b B S / W <.q.H.E.:X,X9XiXdXdXkXMXBXBXBXBXMXbXjXfXfXpXeX%X(.N.z.g.+...I T ",
"                                o ; 0 b Z Z N V R V N S S V ~ _ } 6.D.P.:X;X2X9X0XdXdXkXbXMXMXBXbXbXhXhXfXrX%X.XB.9.&.X.I P I I ",
"                          X o % 4 0 b Z N V V V / ~ ~ A A ~ / } ~ 3.A.P.].-X1X2XqX0XdXdXhXkXbXMXbXMXMXzXfXwX|.^.M.-.&.O...I ....",
"                        . o : 5 q c M N N V ~ R V ~ ~ ~ ~ _ _ ~ ~ <.w.P.E.:X>X1XqX0X0XdXdXhXkXbXbXMXMXfXeX%X.XY.C.x.g.g.d.O.&.&.",
"                X       % 9 q q M M Z V V V R ~ A A A A D ^ / ` / } 6.S.E.:X:X-X2X4X0XuXsXdXhXhXgXbXMXfX3X|.(.T.V.v.l.k.k.-.&.&.",
"+   X         X       . ; 0 l l M M Z V V V ~ ~ ~ ~ ~ ~ ^ ( / W / / <.6.S.P.[.;X>X1X2X7X0XuXdXgXdXgXsX7X%X.XY.Y.V.v.9.k.k.-.&.;.",
"                    X o 5 u b b M Z N V V V A ~ ~ ~ ~ ~ ^ ^ ( / } / / } 0.S.R.:X;X;X>X1X7X7X0XuXuXuX7XoX.X^.^.^.B.z.9.9.9.-.&.&.",
"    . o % % o o X % ; 4 7 u b M M M N V V V A ~ ~ ~ ~ / ^ ^ ( ~ } / W / } 0.S.E.[.:X:X-X>X,X1X2X2X1X X.X^.^.(.(.V.B.v.z.z.k.-.-.",
"= ; 5 t u u 0 7 5 7 t 0 t u c b M M N V V V A ~ ~ ~ ~ / ^ ^ ^ ( / / / / / <.6.y.J.P.L.!.!.].[.[.[.].!.J.^..X.X_.`.~.~.~.W.C.M.x.",
"0 t u N V V b u p p b l u 0 l g M N N V V A ~ ~ ~ ~ ~ ~ ^ :.:.D ~ / / / / / 7.1.w.e.D.F.H.J.J.J.F.K.K.K.J.^..X^._._._._.).W.M.x.",
"9 7 7 l V V l 7 5 t l l t y u b M N V V V V A ~ ^ ~ ~ ~ D :.:.:.~ / ( _ _ ( ( | <.3.0.e.y.e.e.b.e.e.b.D.K.^.^.^.`.`.`.`.W.B.x.-.",
"o o @ 5 u u 5 . o ; q u t p p n M N N V V V A ~ ^ ~ A D D :.:.:.| ( ( _ <.} | [ ~ | 1.0.0.0.8.9.0.r.r.e.b.K.K.K.Q.Q.Q.Q.B.x.-.X."
};
