/* XPM */
static const char *forevernevermore[] = {
/* columns rows colors chars-per-pixel */
"100 100 10 1 ",
"  c #0B030D",
". c #2C0E65",
"X c #4E2273",
"o c #61338A",
"O c #73499B",
"+ c #322182",
"@ c #9066AF",
"# c #9A7BC2",
"$ c #AC8DC7",
"% c #817A79",
/* pixels */
"                                                                                   X    %  X%$%$    ",
"                                                                                             X %  . ",
"                    .    .                                                                       .  ",
"            .      .........                                                                        ",
"           ..................                                                                    .  ",
"     ...........................   .                                                             %  ",
"    ....................................                                                            ",
"   ...................++...................                                                         ",
"  ............+++.....++++..................                                                        ",
"...............+++....++++...................                                                    X  ",
"................++.....+++......................X..X..   . .  .         .    .                      ",
".......................+........................X X..X  .. . ..  ........ . ... .  .  ..          $$",
"......+.................X.......................X.X..XXXXX. X.X. . .. ...  X .  . ......          %X",
"..............++.....XXX++X.....XX.................XX.. X.. X  .        .  .                        ",
"....+.++....++++..XXXXX+++XXXXXXXXXX.................... .                                          ",
"....++++..++++++.+XXX+++++XXXXX+XXXXX.XX................. .                                       X%",
"...++..+XXX..XXXXXXX+++XoooXooooooXXXXXXXX................                                          ",
"+.......XXXX+X++X+++oooooooooooooooooXXXXX................                                          ",
"++.+..+.XX++++++ooooooooooooooooooooooXXXX................                                          ",
".+++++++++++++++oooooooooooOooooOooooooXXXX...............  .                                       ",
".+++++.+++++++++oooooooooooOOOOOOOOOoooooXXXX................                                     $$",
"++++++.+++++++ooooooooooooOOOOOOOOOOoooooXXXXX...............                                     %X",
".+.++.+++++++ooooooooooooooooOOOOOOOOoooooXXXX...............                                       ",
"...+..+++o++ooooooooooooooooooOOOOOOOoooooXXXXX............. .                                      ",
"...++..+++oooooooooooooooooooOOOOOOOOoooooooXXXX..........                                          ",
"....X++++ooooooooooooooooooooOOOOOOOOOoooooooXXXX.........                                          ",
"+..+XX++ooooooooooooooooooooooOOOOOOOOOOoooooXXXXX........  ....                                    ",
"+.++..++oooooooooooooooXXXXooooOOOOOOOOOOoooooXXXX........   ..                                     ",
"+..+.+++ooooooooooooooooXXXXXooooooOO@@OooooooXXXX..........                                        ",
"++.++++++oooooooooooooooooXXXXoooooo@@OOOoooooXXXXX..........                                       ",
"+.++++++oooooOooooooooooooooooooooooOOOOOOooooXXXXX..........                                       ",
"++.+++++ooooOOOOOOOOOOOOOOOOOOoooooooOOOOOoooooXXXX..........                                       ",
"...++++ooooOOOOOOOOOOOOO@OO@OOOOooooooOOOOOooooXXXX.........                                       X",
"...++++oooOOOOOOOOOOOOOOOOOOOOOO@@OOooooOOoooooXXXX..........                                      %",
"..+++++ooOOOO@@@OOOOOOOO@OOOOO@@@@@O@OoooooooooXXXXX.........                                      X",
"...++++ooOOOO@OOOOOOOOOOOOoooOO@@@@@@OOoooooooooXXX..........                                      $",
"..++++ooOOOO@@O@OOOOOOooooooooO@@@@@@@OOooooooooXXX............                                     ",
"..++++ooOOO@@@@@OOOOOooXXXXXXooO@@@@@@@@OooooooooXXX..........                                      ",
"..++++oOOO@##@@@OOOooX.....XXooOO@@@@@@@@OoooooooXXX......... .                                     ",
"...+++oOOO####@@OOOoX.......XXooOO@@@@@@@@OooooooXXXX.........                                      ",
"+..+++oOOO@###@@@OooX.......X+XooO@@@@@@@@OOoooooXXXX.........                                      ",
"+..+++oOOO@###@@OOoo........++ooooO@@@@@@@@OooooooXXXX.........                                     ",
"+..++oooOOO@@@@@OOo+.......Xooooooo@@@@@@@@@OooooooXXX......... .                                   ",
"...++oooOOOOOOOOOo+.... ..XoOOOOooO@@@@@@@@@OOooooooXXX........                                     ",
"...++ooooOOOOOOOOo.......+oO@@@OOOO@@@@@@@@@@OooooooXXXX.......                                     ",
"...++ooooooOOOooo+......+oO###@OOOO@@@@@@@@@@@OooooooXXX......                                      ",
"...+oooooooooooooX......oO@@@@OOooO@@@@@@@@@@@OOOOooooXX......                                      ",
"...+oooOOOOOoOoo++X...++oOOOOOoooooO@@@@@@@@@@@OOOooooXX......                                      ",
"..++ooOOOOOOOOOooooooXXoooooooooXXoO@@@@@@@@@@@@@OOoooXX......                                      ",
".+++ooOOOOOOOOOOooooooooooOOOOOooooO@@@@@@@@@@@@@OOoooXX......                                      ",
"++++ooOOOOOOOOOOOoooooOOOOO@@OOOOOOO@@@@@@@@@@@@@OOoooXXX....                                       ",
"+++oooOOOO@OOOOOooooOOO@@@@@@@@@@@@@@@@@@@@@@@@@@@OoooXXX....                                       ",
"oo+oooOOO@@@@@OOOOOOOO@@@@@###@@@@@@@@@@@@@@@@@@@@OooooXX....                                       ",
"OooooOOOO@##@@@OOOOOOO@@@@##$#####@@@@@@@@@@@@@@@@OooooXX....                                       ",
"OOooOOOOO@####@@OOOOO@@@@@##$$$$####@@@@@@@@@@@@@@OooooXX.....    ...........                       ",
"OOOOOOOOOO@###@@@@@@OO@@@@@##$$$$####@@@@@@@@@@@@@OOoooXX..... . ............                       ",
"OOOOOOOoOO@####@@@@@@@@@@@####$$##$###@@@@@@@@@@@@@OOoooX.....  ..............                   X$ ",
"OOOOOOOOOOO@###@@@@@@@@@@@@####$##$###@@@@@@@@@@@@@OoOooX...........XX........                      ",
"OOOOOOOOOOO@###@@@@@@@@@@@@@#####$$$###@@@@@@@@@@@OOooooXX.........XX..........                     ",
"OOOO@@@OOOOO@@@@@@@@@@@@@@@@@####$$$###@@@@@@@@@@OOOooooXX.....................                     ",
"OOOOOO@@@@OO@@@@@@@@@@@@@@@@@@####$$###@@@@@@@@@@OOooooXX.....................                      ",
"OOOOOOO@@@@@@@@@@@@@@@@@@@@@@@@########@@@@@@@@@@OOoooooX.....................                      ",
"OOOOOOO@#@@@@@@@@@#####@###@@@#########@@@@@@@@@@OOooooXX.....................                      ",
"OOOOOOO@#@@@@@@@@@########@############@@@@@@@@@OOOoooXXX..........XX........                       ",
"oooOOOO@@@@@@@@@@###$$$$##############@@@@@@@@@OOOooooXXX........XXX.........                       ",
"oooOOOO@@@@@@@@@@###$$$$#############@@@@@@@@@@OOOooooXX.........XXX........                        ",
"oooOOOO@@@@###@@###$$$$$$$$$#########@@@@@@@@@OOoooooXXX........XXXX........                        ",
"oooOOOOO@@#########$$$$$$$$$$$$$#####@@@@@@@@@OOoooooXXX......XXXXXX.......                        .",
"ooOOOO@@@##########$$$$$$$$$$$$$######@@@@@@@OOoooooXXX.......X+XXX.......                          ",
"ooOOOO@############$$$$$$$$$$$$$######@@@@@@@OoooooXXX....................                        .X",
"ooOOOO@##########@##$$$$$$$$$$$$$$#####@@@@@@OoooooXXX...................                        X%%",
"ooOOOO@@#######@@@##$$$$$$$$$$$$$$####@@@@@@OOooooXXX....................                        %$ ",
"ooOOOO@@########@@##$$$$$$$$$$$$$$$###@@@@@@@OoooXXXX........XX.........                            ",
"ooOOOOO@########@@##$$$$$$$$$$$$$$$####@@@@@@OooXXXXX.......XXXX........                            ",
"OOOOOOO@@@######@@##$$$$$$$$$$$$$$$####@@@@@@OooXXXXX.......XooX.......                             ",
"ooOOOOOO@@######@@##$$$$$$$$$$$$$$$####@@@@@OoooXXXX.....XXXXXXX......                              ",
"oooOOOOOO@@#####@@@#$$$$$$$$$$$$$$$###@@@@@@@oooXXXX.....XXX.........                               ",
"++ooOOOOOO@@####@@@##$$$$$$$$$$$$$$###@@@@@@@oooXXX......XXX.........                               ",
"..+ooOOOOOO@@####@###$$$$$$$$$$$$$####@@@@@@OOooXX.......XXXX.......                                ",
"...+ooOOOOO@@@###@@##$$$$$$$$$$$$$####@@@@@@@oooXX........XooXX.....                                ",
"+.++++ooOOOO@@@#@@@###$#$$$$$$$$$$###@@@@@@OOooXXX..........X.......                                ",
"....+++oooOOO@@#@#@#####$$$$$$$$$###@@@@@@@OOooXX....................                               ",
"......+++oooOO@@@@####$$#$$$$$$#$###@@@@@@@OOooXX.....................                              ",
".......+.++ooOO@@@####$$##$$$$######@@@@@@@OoooXX.....................                              ",
"..........+ooOO@@@####$$#########@@@@@@@@@OooooX......................                              ",
"+........++ooOOO@@####$$#########@@@@@@@@@OoooXX........................                            ",
"+......X++oooOOOO@##############@@@@@@@@@@OoooXX...........................                         ",
"++..XX+++oooooOOO@@#############@@@@@@@O@OoooXXX............................                        ",
"++.XXX++X+oooOOOOO@###########@@@@@@@@@@@OoooXX.............................                        ",
"+++++++oX+oooOOOOO@@@########@@@@@@@@@@OOoooXX...............................                       ",
"++++++++XooooOOOOOO@@@@#@@#@@@@@@@@@@@@OoooXX.................................                      ",
"...X++XXXooooOOOOOOO@@@@@@@@@@@@@@@@@@OoooXXX..................................                     ",
"...XX+Xo+oooOOOOOOOOO@@@@@@@@@@@@@@@@OoooXXX.........X..........................                    ",
"++++ooooooooOOOOOOoOOOO@@@@@@@@@@@@OOoooXX...........X...........................                   ",
"++ooooOOoooOOOOOOOoooOOO@@OOOOOOOOoooooXX...................................... ...       ...       ",
"++oooOOOOOOOOOOOOoooooooOOoooooooooooXXX.....................................   ......  .........   ",
"++oooOOOOOOOOOOOOOooooooooooooooooooXXX......................................   .  ....  ......     ",
".+ooooOOOOOOOOOOOoooooooooooooooXXXXXX........................................      .    ......     ",
".++ooooOOoooooooooooooXXXXXXXXXXXXX...........................................  ...      . ....     ",
"..+++ooooooooooooooXXXXXXXXXXXXXXX......XXX...................................  ...         ..      "
};
