/* XPM */
static const char *rain[] = {
/* columns rows colors chars-per-pixel */
"64 64 238 2 ",
"   c #000000",
".  c #0A0505",
"X  c #04040B",
"o  c #0E0A09",
"O  c #120E0B",
"+  c #1A130F",
"@  c #070512",
"#  c #090615",
"$  c #060912",
"%  c #090B15",
"&  c #0C0B1C",
"*  c #0E0B1C",
"=  c #1B1715",
"-  c #261714",
";  c #211C1A",
":  c #27211E",
">  c #0E0B24",
",  c #0E0C2D",
"<  c #130D29",
"1  c #0E1424",
"2  c #0D1829",
"3  c #12172B",
"4  c #1D0C32",
"5  c #151436",
"6  c #1B143D",
"7  c #250E3C",
"8  c #162439",
"9  c #2B2725",
"0  c #342A27",
"q  c #3B322E",
"w  c #3A3837",
"e  c #431F1D",
"r  c #483B39",
"t  c #4F4533",
"y  c #4C433A",
"u  c #1B1548",
"i  c #1E1A58",
"p  c #221A4F",
"a  c #241B53",
"s  c #261D58",
"d  c #301A5C",
"f  c #1B2848",
"g  c #1D334C",
"h  c #1E3654",
"j  c #2B225C",
"k  c #312351",
"l  c #223956",
"z  c #251D67",
"x  c #381E6B",
"c  c #261F73",
"v  c #292568",
"b  c #3B2267",
"n  c #292379",
"m  c #382478",
"M  c #253F72",
"N  c #472E7C",
"B  c #27465D",
"V  c #274569",
"C  c #2B4D76",
"Z  c #574B43",
"A  c #585149",
"S  c #645A50",
"D  c #68635A",
"F  c #746E68",
"G  c #79746B",
"H  c #8C7C73",
"J  c #91837D",
"K  c #381B94",
"L  c #262284",
"P  c #2A2484",
"I  c #2A268A",
"U  c #2A258C",
"Y  c #382789",
"T  c #3C328A",
"R  c #2C2692",
"E  c #2F2894",
"W  c #352597",
"Q  c #3B2792",
"!  c #332A95",
"~  c #3A2B95",
"^  c #342C9A",
"/  c #3A2C9C",
"(  c #3B3299",
")  c #371BA1",
"_  c #3A2BA3",
"`  c #2A36A9",
"'  c #3A36A6",
"]  c #42128D",
"[  c #451A99",
"{  c #551C97",
"}  c #44298A",
"|  c #50238F",
" . c #45368B",
".. c #472B95",
"X. c #422C9C",
"o. c #4B2E9B",
"O. c #572796",
"+. c #483298",
"@. c #58329A",
"#. c #67299C",
"$. c #653598",
"%. c #76399C",
"&. c #481BA5",
"*. c #4829A4",
"=. c #4D2CAB",
"-. c #5627A9",
";. c #4536A7",
":. c #4B33A3",
">. c #5532A5",
",. c #5936A9",
"<. c #4D2EB4",
"1. c #5527B2",
"2. c #542DB4",
"3. c #4D34B4",
"4. c #4A38B6",
"5. c #5333B5",
"6. c #5A33B5",
"7. c #553AB4",
"8. c #5535BA",
"9. c #5A35BA",
"0. c #5439BB",
"q. c #5B39BB",
"w. c #682AA7",
"e. c #772BAA",
"r. c #6438A6",
"t. c #7639A8",
"y. c #6837B3",
"u. c #643BBD",
"i. c #6B3DBD",
"p. c #763BB7",
"a. c #335A85",
"s. c #364F93",
"d. c #39638A",
"f. c #3B6998",
"g. c #344BB3",
"h. c #3D6DB5",
"j. c #41729E",
"k. c #4A4BB4",
"l. c #7948AA",
"z. c #6C4DB7",
"x. c #7742BE",
"c. c #4378A5",
"v. c #447AB7",
"b. c #6F3FC0",
"n. c #3654C5",
"m. c #396ECF",
"M. c #504EC2",
"N. c #4457C4",
"B. c #7441C1",
"V. c #7D43C3",
"C. c #4864C8",
"Z. c #4C69CD",
"A. c #4778CA",
"S. c #477AD4",
"D. c #833F9F",
"F. c #853AA8",
"G. c #923FB3",
"H. c #8847A9",
"J. c #984AAB",
"K. c #8741BB",
"L. c #9945B6",
"P. c #8F5AB4",
"I. c #A946BA",
"U. c #B349BD",
"Y. c #A958B3",
"T. c #A861B9",
"R. c #B365BD",
"E. c #8646C5",
"W. c #9345C2",
"Q. c #8D5AC4",
"!. c #AA46C3",
"~. c #B050C1",
"^. c #8665C3",
"/. c #AD71CA",
"(. c #B673C7",
"). c #4B83B7",
"_. c #508AB1",
"`. c #528AB9",
"'. c #3D81DE",
"]. c #579ACA",
"[. c #5789D8",
"{. c #4F92D5",
"}. c #59A8CD",
"|. c #5AA3D2",
" X c #66A5CE",
".X c #68B4D9",
"XX c #75B5DC",
"oX c #5293E1",
"OX c #55A4E8",
"+X c #5AB4EC",
"@X c #64ADE4",
"#X c #66B9E7",
"$X c #72B2E1",
"%X c #5EC2F4",
"&X c #6AC3EA",
"*X c #65C9F5",
"=X c #74D1F0",
"-X c #7ADAF8",
";X c #7BE5FB",
":X c #8F8C87",
">X c #998E86",
",X c #A49B97",
"<X c #AAA49E",
"1X c #B4ACA5",
"2X c #B5B3B0",
"3X c #C2BCB9",
"4X c #82BEE8",
"5X c #85C7E7",
"6X c #95D5EC",
"7X c #8BD7F2",
"8X c #99DAF2",
"9X c #A7DBEF",
"0X c #97E4EE",
"qX c #88E9FA",
"wX c #93E5F3",
"eX c #9AEAF6",
"rX c #92EDFB",
"tX c #8EF0FB",
"yX c #93F1FB",
"uX c #9DF1FB",
"iX c #A8E4EE",
"pX c #A8EAF5",
"aX c #BAEAF4",
"sX c #A5F2FA",
"dX c #B7F2F8",
"fX c #C8C7C4",
"gX c #CFD0CC",
"hX c #DAEBEC",
"jX c #C6ECF7",
"kX c #C8F5F9",
"lX c #D9F6F9",
"zX c #DCF6F9",
"xX c #E8E5E9",
"cX c #EEEEF2",
"vX c #E4F4F6",
"bX c #E4F9FB",
"nX c #E9F9FB",
"mX c #F5FAFA",
/* pixels */
"                                                                                                                                ",
"                                                                                                                                ",
"                                                                  f 3                                         $ f @             ",
"                                                                3 h.C X                                       f f.f             ",
"                                                              X a.|.h.2                                     & f.{.a.$           ",
"              5 %                                             g  XaX4XV                                     V XXiX].8           ",
"            1 s.f                                           % c.9XmXjX).1                                 1 _.jXmX6XC           ",
"          X V v.f.%                                         h .XkXmXbXXXh                                 V 5XvXcXjX].2         ",
"          8 `.6X.Xg                                       $ c.7XbXnXnX8Xf.$           & X               1 `.pXvXxXzX5XV         ",
"        X d.6XnX9Xd.X                                     8 }.pXbXvXnXaX|.8         1 s.3               V &XkXnXhXvXeX_.%       ",
"        8  XjXmXlX X8                                   X C &XdXlXzXzXdX=XC       X C A.M             $ f.=XkXzXhXlXpX.X8       ",
"      X d.5XvXxXcX6XC                           X % < 6 v |.;XsXkXlXkXsX;Xv.3 @   f ].5X).2           3 ].5XiXkXlXkXsX=XB       ",
"      3 `.iXvXxXxXiX_.&                   X > u s n n Y s.+XqXrXwXpXsXyX;X{.T b v v.8XbX5XV           g &XrX0X8XdXsXuX-XC       ",
"      V .XaXzXzXzXaX.Xl               # 6 v P ! ! ! ^ ~ ' OX;XyXrXqXrXrX=Xk...+.k.@XlXmXjXc.%         g #XrXuXwX0XsXrX&Xl       ",
"    % ).-XpXlXlXlXpX7Xd.X         # u n R ^ ^ ^ ^ ^ ' ;.^ C.*XqXyXyXyX;X[.=.{ o.[.8XnXmXzXXXg         1 ).-XrXuXwXrXqX`.1       ",
"    3 |.tXeXiXdXpX0XqXj.X     X 6 x Q ^ ` ` ^ ^ ^ _ ' ;.K ) S.%X-X;X-XOXk.-.{ 4.+XdXvXhXbXwX).6         f ].-XqXqX-X].l         ",
"    3 |.tXuXwXwXeXwX=Xd.    & s Y ..X.` n.g._ _ _ ' ;.*.[ [ ) g.S.oXA.;.O.w.-.Z.=XkXbXzXbXpX@X .7 X       8 d.).).d.f           ",
"    $ c.-XuXuXwXuXrX#Xl   4 m ..o.o.' m.{.m.4.5.7.4.;.&.&.&.&.&.=.;.[ [ { w.-.oX;XdXlXzXlXpX&Xk.N k #       X % % X             ",
"      g |.qXrXwXqX=Xj.& 7 } :.:.:.:.g.XXjX$Xn.7.7.7.;.=.<.<.<.5.2.2.2.-.*.-.k.+X;XeXdXkXdXrX-XA. . .j %                         ",
"        f c.|..X].a.< 7 } :.:.:.>.;.[.aXmXaXS.7.7.4.3.4.4.0.8.3.<.5.5.6.0.5.N.%XqXrXwXwXrXtX*Xm.T  .T j %                       ",
"          $ 3 8 2 X 7 } :.:.:.>.>.k.4XbXcXzX$Xk.7.3.3.0.0.0.0.0.q.0.5.2.2.2.M.OX;XtXyXtXyXqX+Xg.( ( ~ Y s @                     ",
"                  4 Y X.:.:.>.w.,.{.pXnXxXvX6XN.5.5.4.0.0.0.q.8.8.9.9.2.1.1.2.Z.%X;XqXtXqX*XA.K } ( ( ! Y i X                   ",
"                # c / ;.:.:.w.e.k.#XdXbXxXvXpX[.4.5.0.0.0.q.q.9.6.2.6.8.6.1.1.0.C.OX*X*X+XA./ ] ] Q ( ^ ! P 5                   ",
"              X a Q / X.;.>.e.e.C.#XaXzXzXzXdX&XN.5.0.0.q.u.u.u.u.u.6.9.9.2.-.8.3.4.N.N.' *.*.=.*.[ / ^ ^ ! n >                 ",
"              5 P ! / / ;.w.F.i.oX=X0XkXlXkXsX-XS.5.0.q.q.u.b.b.i.i.u.u.q.9.-.6.0.1.&.*.2.6.q.q.6.*.K ^ ^ ^ R i @               ",
"            # z R ! ^ / :.t.L.z.@XrXeX0XiXuXyX-XS.5.q.u.u.i.B.B.x.i.i.u.u.q.2.=.0.2.5.0.q.u.u.i.u.6.[ W ^ ^ E P u               ",
"            6 P R R ! / O.D.T.z.[.qXuXuXwXrXtX*Xn.6.u.i.x.E.W.W.W.K.p.i.u.q.6.=.0.5.8.q.u.i.B.B.x.i.-.K ^ ^ ! U c &             ",
"          % z U R R ! ..$.D.Y.Q.M.@XrXuXuXrX-Xm.4.y.y.p.K.!.!.!.!.!.W.p.i.9.6.=.4.3.8.q.u.B.B.V.V.V.i.X.E ^ ! R P u X           ",
"          6 n U R R E ..H.T.T.~.Q.C.@X-X-X*X'.g.,.y.y.K.W.I.I.I.~.~.!.K.y.6.5.=.;.4.6.q.i.B.V.E.E.E.b.1.W ^ ! U U c >           ",
"        @ i L U U R E O.H.T.(.(./.^.Z.[.[.m.N.7.,.y.p.K.L.~.~.U.U.U.I.L.p.6.=.*.;.4.5.q.i.B.V.E.E.E.V.y.[ ! E U U L u           ",
"        > c L U U R ! @.H.Y.R.(.(.(./.^.z.z.z.>.>.,.y.G.L.I.U.U.U.U.I.G.t.>.*.*.*.;.=.6.i.i.V.E.E.E.E.w.{ Q R U U L z @         ",
"        u c L U U U Q $.F.J.Y.Y.R.T./.P.l.l.z.o.o.>.r.t.H.J.L.I.I.J.J.F.r.:.X./ _ ;.*.=.6.i.x.E.E.E.p.w.O.Q R U U L n ,         ",
"      X i L L L U U Q @.t.F.J.J.Y.J.H.%.$.$.@.......@.r.r.l.l.l.l.l.l.r.@.X./ / / ( X.X.*.>.y.x.x.x.t.#.O.Y I P P P L u         ",
"      & v L L L L P Y O.$.%.%.%.%.%.$.@.O.| } Q Q Q ......+.+.+.+.+.+.+.X.~ ~ W W ( Q Q Q Q ..,.r.r.@.O.| Y P P P P P i X       ",
"      < j n n n n n m m m b b b b b m m } } Y Y m n z a u u p s a p u s z v n I Y T Y P n z i p a s d x m n n n n n n a &       ",
"      & < < 5 6 p a 6 < # X X X X @ # < 6 s j u < # X       O 0 0 o     X @ > 5 i v i 5 & X         X @ > 6 a u 5 > > < %       ",
"                X X                       X X               + t t O               X                         X                   ",
"                                                            + t t O                                                             ",
"                                                            + Z y o                                                             ",
"                                                            = S y o                                                             ",
"                                                            = S Z o                                                             ",
"                                                            = D Z O                                                             ",
"                                                            = D A o                                                             ",
"                                                            = F S o                                                             ",
"                                                            ; F S O                                                             ",
"                                                            ; G D +                                                             ",
"                                                            9 :XF +                                                             ",
"                                                            9 :XG +                                                             ",
"                                                            9 ,XH =                                                             ",
"                                                            0 ,XJ =                                                             ",
"                                                            0 <XJ =                                                             ",
"                                                            q 1X>X=                                                             ",
"                                                            q 1X>X=                                                             ",
"                                                            q 1X,X;                                                             ",
"                                            .               w 3X,X;                                                             ",
"                                          - e .             w gX1X;                                                             ",
"                                        . S H -             q fX<X-                                                             ",
"                                        . G 2Xy             r fXJ O                                                             ",
"                                          D fX:X;         = :X3XZ                                                               ",
"                                          9 <XfX:Xw ; : Z :XfXH -                                                               ",
"                                          . y <XfX2X1X2XfXgX>X0                                                                 ",
"                                              0 F ,X2X2X<XF :                                                                   ",
"                                                . 9 r q = .                                                                     ",
"                                                                                                                                "
};
