/* XPM */
static const char *rain[] = {
/* columns rows colors chars-per-pixel */
"100 100 10 1 ",
"  c #010101",
". c #38335D",
"X c #322892",
"o c #5531AA",
"O c #5351B9",
"+ c #9C4DBB",
"@ c #60B7E8",
"# c #98EBF7",
"$ c #D5E2E3",
"% c #867E75",
/* pixels */
"                                                                                                    ",
"                                                                                                    ",
"                                                                                                    ",
"           .                                   .                                                    ",
"           O.                                 .O                                                    ",
"          .OO                                 OO.                                                   ",
"          OOO.                               .@@O.                                                  ",
"         .@@@O.                              O@@@O                                                  ",
"         O@##@O                             .@#$@@.                                                 ",
"        .@#$$#@.                            O@$$$@O                                    X.           ",
"        X@$$$$@O                           .@#$$$#@.                                  .OO.          ",
"       .@#$$$$#@.                          O@$$$$$@O                                  XOOX          ",
"       .@$$$$$#@O                         .O@$$$$$#@.                                .@@@O.         ",
"       @#$$$$$$@@.                        .@#$$$$$#@O                                X@##@O         ",
"      .@#$$$$$$#@O             X.         O@#$$$$$$#@.                               O#$$#@.        ",
"      O@#$$$$$$#@@            .OO.       .@@$$$$$$$#@.                              .@#$$$@O        ",
"      @##$$$$$$#@@.           XOOO       X@#$$$$$$$#@O                              O@$$$$#@.       ",
"     .@##$$$$$$#@@O           O@@O.      @@##$$$$$###@O                            .@#$$$$$@@       ",
"     .@###$$$$####@          X@#$@O    ..@@###$$$####@@XX...                       O@$$$$$$#@.      ",
"     X@###########@.         O#$$#@O.X.XO@###########@@XXXXXX...                   O@$$$$$$#@O      ",
"     .@#####@#####@.        .@#$$$@@XXXXXO@##########@@XXXXXXXXXX..               .@#$$$$$$$@O.     ",
"     .@###########@.        O@$$$$#@OoXooO@##########@OXXXXXXXXXXXXX.             O@#$$$$$$#@@X     ",
"      O@#########@O        .@#$$$$$@@OooooO@########@@XXOoXXXXXXXXXXX..          .@##$$$$$$###@     ",
"      .@@#######@O.        O@#$$$$$#@Oooooo@@######@@OXXoOXXXXXXXXXXXXXX.        .@###$$$$####@.    ",
"       .@@#####@O.        O@#$$$$$$#@@oooooO@@@@@@@@OXXXXOoXXXXXXXXOXXXXX..      .@###########@.    ",
"        .O@@@@@O        ..O@#$$$$$$##@OooooXO@@@@@OXXXooXoOXXXXXXXOOOXXXXXX.     .@@#####@####@.    ",
"          .....        ..XO@#$$$$$$##@OooooXXoXOOXXXXXooXXOooooooXOOOOXXXXoXX.    @@##########@.    ",
"                      .XXo@@#$$$$$$##@@ooooXooXXooooXXoooXoOoooooOO@@OXoooXooX.   O@#########@O     ",
"                     .XoXO@###$$$$###@@oooXXoooooooooooooooOoooooO@$#@OXoooooXX.  .@@########@.     ",
"                    .XoXXO@###########@OoXooOOooooooooooooooOoooO@#$$#@Ooooooooo.  .@@#####@@X      ",
"                   .XXXXXO@@##########@OooOoooooooooooooooooOOooO@$$$$@OXoOoooooX.  .O@@@@@O.       ",
"                  .XXXXXoX@@##########@OoOoooooooooOoooooooooOoo@#$$$$#@OooooooooX.   .....         ",
"                 .XXXXXooXO@#########@@oooooooooOOooOOOOoooooOoO@#$$$$$@OoooooooooX.                ",
"                .XXXXXXoXXX@@#######@@OooooooooOooooOOOOOooooOoO@$$$$$$#@OooooooooXX.               ",
"               .XXXXXXoXXXXO@@#####@@OooooooooooooooooooooooooX@#$$$$$$#@OoooooooooXX.              ",
"               XXXXXXXXXXXXXXO@@@@@@OXoooooooooooOOOooooooooooO@#$$$$$$#@@ooooooooXXX.              ",
"              .XXXXXXXXooooXoXXOOOOooOoooooooooOOOOOooooOooooo@@#$$$$$$#@@Oo+oooooXXXX.             ",
"             .XXXXXXXXXoooooooooXXoooOooooooOOOOOOOOooooOooooO@##$$$$$$#@@Oo+oooooXXXXX.            ",
"             XXXXXXXXXoooooooOoooooooOoooooOOOoOOoO+oOooOOoooO@###$$$$####@o++oooXXXXXXX            ",
"            .XXXXXXXXooooooooooooooooOooooooOooo++++OOOoOOoooO@###########@o++ooooXXXXXX.           ",
"           .XXXXXXXXXoOOOOooooooooooOoooooooooooO++++oooOOoooO@###########@o+++ooXXXXXXXX.          ",
"           .XXXXXXXXXooOOOO+ooOoooooOoooooooooo+++++++++Oooooo@##########@Oo+++ooXXXXXXXX.          ",
"          .XXXXXXXXXo++++OOOOoooOoooOooooOoOoo++++++++++OooooXO@#########@O+++++oXXXXXXXXX.         ",
"          XXXXXXXXXoo++++++O++ooOooooooooooOo+++++++++++OOooooXO@#######@OO+++++ooXXXXXXXX.         ",
"         .XXXXXXXXXo+++++++O++OoOooooooooooo+++++++++++++oOooooXO@#####@Oo+++++++oXXXXXXXX.         ",
"         XXXXXXXXXXo++++++++++Ooooooooooooo+++++++++++++++oooooXOO@@@@@Oo++++++++oXXXXXXXXX.        ",
"        .XXXXXXXXXooO+++++++++ooooooXoooooo+++++++++++++++ooooooOOOOOOOO+++++++++oXXXXXXXXX.        ",
"        .XXXXXXXXXooo++++++++OooooooXoooooo+++++++++++++++ooooooOOOOO++++++++++++oXXXXXXXXX..       ",
"        XXXXXXXXXXooo+++++++OoooooooXXXooooo+++++++++++++oooooooo+O++++++++++++++ooXXXXXXXXX.       ",
"       .XXXXXXXXXoooo+++++++OoooooXoXXXXoooo+++++++++++++oooooooo++oO++++++++++++ooXXXXXXXXX.       ",
"       .XXXXXXXXXooooo+++oOOoooooXXoXXXXoXoooO++++++++OOoooooXXXoooooo++++++++++oooXXXXXXXXXX.      ",
"       XXXXXXXXXXooooooooooooXXXXXXoXXXXXoXooooooooooooooooXXXXXXooooooo+++++++ooooXXXXXXXXXX.      ",
"      .XXXXXXXXXXXoooooooooXXXXXXXXXXXXXXXXXoXXXooXXXoooooXXXXXXXXooooooooooooooooXXXXXXXXXXX.      ",
"      ..XXXXXXXXXXXXX.XXXX.XXXXXXXXXXXXXXXXXX......XX...XXXXXXXXXXXXXXooooooXXooXXXXXXXXXXXX..      ",
"      ...............       .....XXXXX.....                ...XXXXX.X.......   .....XX........      ",
"             ....               ......           ...           .....               .....            ",
"                                                ....                                                ",
"                                                ....                                                ",
"                                                ....                                                ",
"                                                 ...                                                ",
"                                                 .%.                                                ",
"                                                 .%.                                                ",
"                                                .%%.                                                ",
"                                                .%%.                                                ",
"                                                .%%.                                                ",
"                                                .%%.                                                ",
"                                                .%%.                                                ",
"                                                .%%.                                                ",
"                                                .%%.                                                ",
"                                                .%%.                                                ",
"                                                .%%.                                                ",
"                                                .%%%                                                ",
"                                                .%%%                                                ",
"                                                .%%%                                                ",
"                                                .%%%                                                ",
"                                                .%%%                                                ",
"                                                .%$%                                                ",
"                                                .%$%                                                ",
"                                                .%$%                                                ",
"                                                .%$%                                                ",
"                                                .%$%                                                ",
"                                                .%$%                                                ",
"                                                %$$%                                                ",
"                                                %$$%                                                ",
"                                                %$$%                                                ",
"                                                %$$%                                                ",
"                                                .$$%             .                                  ",
"                                                .$$%            .%.                                 ",
"                                                .$$%            %%%                                 ",
"                                                .$$%           .%$%                                 ",
"                                                .%$%.          %$$%                                 ",
"                                                 %$$%         .$$$.                                 ",
"                                                 .%$$%.      .%$$%.                                 ",
"                                                  .%$$$%....%$$$$.                                  ",
"                                                   .%$$$$%%$$$$$%                                   ",
"                                                    .%$$$$$$$$%.                                    ",
"                                                     .%%%$%%%.                                      ",
"                                                        ...%                                        ",
"                                                                                                    ",
"                                                                                                    "
};
