/* XPM */
static const char *u_cant_lie[] = {
/* columns rows colors chars-per-pixel */
"100 100 7 1 ",
"  c #000001",
". c #00005A",
"X c #000053",
"o c #00004B",
"O c #00005D",
"+ c #0000A1",
"@ c #0000C9",
/* pixels */
"                                                                                                    ",
"                                                                                                    ",
"                                                                                                    ",
"                                                                                                    ",
"                                                                                                    ",
"                                                                                                    ",
"                                                                                                    ",
"                                                                                                    ",
"                                                                                                    ",
"                                                                                                    ",
"                                                                                                    ",
"                                                                                                    ",
"                                                                                                    ",
"                                                                                                    ",
"                                                                                                    ",
"                                                                                                    ",
"                                                                                                    ",
"                                                                                                    ",
"                                                                                                    ",
"                                                                                                    ",
"                                                                                                    ",
"                                                                                                    ",
"                                                                                                    ",
"                                                                                                    ",
"                                                                                                    ",
"                                                                                                    ",
"                                                                                                    ",
"                                                                                                    ",
"                                                                                                    ",
"                                                                                                    ",
"                                                                                                    ",
"                                                                                                    ",
"                                                                                                    ",
"                                                                                                    ",
"                                                                                                    ",
"                                                                                                    ",
"                                                                                                    ",
"                                                                                                    ",
"                                                                                                    ",
"                                                                                                    ",
"                                                                                                    ",
"                                                                                                    ",
"                  o      o.X         oo       oooooo          o  oooo     ooooo   o.o               ",
"             +X  o+     +++++   @@   +@  o+ OOO++@++o   O+    +o @+++X   .++@++o +++++              ",
"             +.  o+    .@      o++o  +@+ o+ OO  o@      O+    @o @         o@   ++   @.             ",
"             +.  o+    ++      +OO+  +O@oo+ oo  o@      O+    @o @O..      o@   @o   ++             ",
"             +.  o+    +O      @ o@  +oO+X+     o@      O+    @o @+OOo     o@   @o   O+             ",
"             +.  X+    ++     O@++@O +o @++     o@      O+    @o @         o@   @o   ++             ",
"             ++  ++    o@o  o +OooO+ +o O@+     o@      O+    @o @o        o@   ++  o@o             ",
"             o++++o     O@+++X+    +o+o  @+     o+      O@+++o+o @+++O     o+    +++@O              ",
"               oo         oo                                                      oo                ",
"                                                                                                    ",
"                                                                                                    ",
"                                                                                                    ",
"                O   oX  o+++o  .o   O  O++O  ++++o    OO   OO oo   O  O+++  O   O++O                ",
"                @o  O+ o@OoO@o +.  o+ ++ooO o@.oo     @@  o@@ ++   @ O@ooO  @  ++ooOo               ",
"                @o  O+ ++   ++ +.  o+ +O    o@        ++O +++ ++   @ ++    o@ O@                    ",
"                @+++@+ @o   .@ +.  o+ O@+O  o@+++     +O+o+O+ ++   @ o@++o  @ ++                    ",
"                @Ooo++ @o   .@ +.  o@  oO+@ o@ooo     @o+++o+ ++   @  oO+@o @ ++                    ",
"                @o  O+ ++   ++ +O  .+     @oo+        @o.@oo+ ++  o@     +O @ O+                    ",
"                @o  O+ o@OoO@o O+oo+O .oo.@oo@ooo     @o o o+ o@oo++ o.oo@. @  @+ooOo               ",
"                O   o.  o+++o   O++O  .+++. o++++o    O    oO  .+++  o+++O  O   +++O                ",
"                                                                                                    ",
"                                                                                                    ",
"                                                                                                    ",
"                                                                                                    ",
"                                                                                                    ",
"                                                                                                    ",
"                                                                                                    ",
"                                                                                                    ",
"                                                                                                    ",
"                                                                                                    ",
"                                                                                                    ",
"                                                                                                    ",
"                                                                                                    ",
"                                                                                                    ",
"                                                                                                    ",
"                                                                                                    ",
"                                                                                                    ",
"                                                                                                    ",
"                                                                                                    ",
"                                                                                                    ",
"                                                                                                    ",
"                                                                                                    ",
"                                                                                                    ",
"                                                                                                    ",
"                                                                                                    ",
"                                                                                                    ",
"                                                                                                    ",
"                                                                                                    ",
"                                                                                                    ",
"                                                                                                    ",
"                                                                                                    ",
"                                                                                                    ",
"                                                                                                    ",
"                                                                                                    ",
"                                                                                                    ",
"                                                                                                    ",
"                                                                                                    ",
"                                                                                                    "
};
