/* XPM */
static const char *u_cant_lie[] = {
/* columns rows colors chars-per-pixel */
"64 64 144 2 ",
"   c black",
".  c #000003",
"X  c #00000C",
"o  c #000006",
"O  c #000008",
"+  c #000007",
"@  c #000001",
"#  c #000004",
"$  c #000002",
"%  c #000009",
"&  c #00000A",
"*  c #000053",
"=  c #00006D",
"-  c #000064",
";  c #000027",
":  c #000047",
">  c #00006E",
",  c #000073",
"<  c #000011",
"1  c #000030",
"2  c #00005D",
"3  c #00006A",
"4  c #00003B",
"5  c #000034",
"6  c #00002A",
"7  c #00000E",
"8  c #000046",
"9  c #00000D",
"0  c #000033",
"q  c #000065",
"w  c #000077",
"e  c #00005E",
"r  c #000044",
"t  c #000035",
"y  c #00002B",
"u  c #000012",
"i  c #000067",
"p  c #000023",
"a  c #000054",
"s  c #00003E",
"d  c #00003C",
"f  c #000068",
"g  c #000032",
"h  c #000018",
"j  c #000042",
"k  c #000005",
"l  c #000022",
"z  c #000057",
"x  c #000071",
"c  c #00001A",
"v  c #000060",
"b  c #00001C",
"n  c #000031",
"m  c #00006C",
"M  c #00004B",
"N  c #000019",
"B  c #00007D",
"V  c #00000F",
"C  c #000039",
"Z  c #00008F",
"A  c #000052",
"S  c #00004E",
"D  c #000051",
"F  c #0000B5",
"G  c #00003A",
"H  c #000093",
"J  c #00001F",
"K  c #000020",
"L  c navy",
"P  c #00002C",
"I  c #00003D",
"U  c #00006F",
"Y  c #00006B",
"T  c #00004F",
"R  c #000085",
"E  c #000062",
"W  c #00008C",
"Q  c #00000B",
"!  c #000015",
"~  c #00005B",
"^  c #000078",
"/  c #00007F",
"(  c #00004D",
")  c #000075",
"_  c #00007C",
"`  c #000076",
"'  c #00005C",
"]  c #000036",
"[  c #000049",
"{  c #000058",
"}  c #00005F",
"|  c #00001B",
" . c #00007E",
".. c #00001D",
"X. c #0000A5",
"o. c #000081",
"O. c #000069",
"+. c #000017",
"@. c #000083",
"#. c #000028",
"$. c #000079",
"%. c #000066",
"&. c #00007B",
"*. c #000041",
"=. c #000013",
"-. c #000096",
";. c #000026",
":. c #000070",
">. c #000010",
",. c #000014",
"<. c #00002F",
"1. c #000025",
"2. c #000024",
"3. c #00002D",
"4. c #00002E",
"5. c #000016",
"6. c #000043",
"7. c #00003F",
"8. c #00001E",
"9. c #00004C",
"0. c #000074",
"q. c #00005A",
"w. c #000063",
"e. c #0000A2",
"r. c #00009D",
"t. c #000056",
"y. c #000029",
"u. c #000048",
"i. c #000097",
"p. c #00007A",
"a. c #00009A",
"s. c #00004A",
"d. c #000086",
"f. c #000040",
"g. c #000037",
"h. c #00008A",
"j. c #000055",
"k. c #000038",
"l. c #000050",
"z. c #000061",
"x. c #000059",
"c. c #000045",
"v. c #000021",
"b. c white",
/* pixels */
"                                                                                                                                ",
"                                                                                                                                ",
"                                                                                                                                ",
"                                                                                                                                ",
"                                                                                                                                ",
"                                                                                                                                ",
"                                                                                                                                ",
"                                                                                                                                ",
"                                                                                                                                ",
"                                                                                                                                ",
"                                                                                                                                ",
"                                                                                                                                ",
"                                                                                                                                ",
"                                                                                                                                ",
"                                                                                                                                ",
"                                                                                                                                ",
"                                                                                                                                ",
"                                                                                                                                ",
"                                                                                                                                ",
"                                                                                                                                ",
"                                                                                                                                ",
"                                                                                                                                ",
"                                                                                                                                ",
"                                                                                                                                ",
"                                                                                                                                ",
"                                                                                                                                ",
"                  . X o   o O + + @   # O + $ $ @     $     # O + O # @ $ @   . @   $ @   $ X %         $   @ $                 ",
"                & * = - ; : > , * <   1 2 3 4 5 6   7 8 9   0 q w e r 0 t y u i p @ a s $ d f 3 g     h j k l s                 ",
"                : w l z x c v w b k   h n m - e M   N B h   V C Z y 4 A e S D F G b H B < J K 4 L N   P w % I U @               ",
"                Y T   K R 7 : E @     6 e W q e M   N B h     b B < Q ! ~ f ^ / C ( i ) g     & _ 0   P ` O d U @               ",
"                ' E   ] / O [ - @     % u { E } M   |  .h     ../ u     e X.a E [ o.B W O.& @ +.@.;   #.B 9 8 Y                 ",
"                K $.%.&.*.  s a @     5 ~  .z T D T 3 o.=.    N m V     z -.c D { i h ;.:.a v , ' +   >.:.Y _ d                 ",
"                  ,.<.K .   & 7       ! 1.2.V 9 < K 1.| .     # u $     V !   9 u V   @ =.+.3.; +       < 4.l .                 ",
"                                                                                                                                ",
"                  . y 8 n o u 5.c 6.4 7 c 7 @ b < P >.  ; h   @ K 4 G +.| r G 9 c 9 $ ..% >.I 7.,.k 8.o O 8.$                   ",
"                  9 9.S 0.( : * 6 9.x q.w.5 + 3 *.e.a h r.t.  @ y.u._ A y 9.x { - n & = n 3 - v x ;.:.5...U %                   ",
"                  @ $   y / e ' 7 s / - U G + ` [ i.p.D a.z     2.s.d.~ V f.L E :.g.Q ^ z L >.% p.T Z 2 - h.&                   ",
"                        l o.v } - / [ ,.= 4 O ` s.&.` Z = j.    | g.$.e i B u.u U k.Q w ~ _ Q k 0.j.h.( j.d.&                   ",
"                  Q 0 y w.- l.z.^ x.3.;.' i G o.C w C M T j.  @ | y U v &.j.4.1.e q I L 1 B u.*.o.5 p.h K $.&                   ",
"                  + c.- a =.l y.#.z.E <.! { q k.7 k.%   v.;   $ t { } y y.E z.3.5.q.- ] $ ;.} z.P Q C Q V k.#                   ",
"                      @           @ @       @                             @ @       @         @                                 ",
"                                                                                                                                ",
"                                                                                                                                ",
"                                                                                                                                ",
"                                                                                                                                ",
"                                                                                                                                ",
"                                                                                                                                ",
"                                                                                                                                ",
"                                                                                                                                ",
"                                                                                                                                ",
"                                                                                                                                ",
"                                                                                                                                ",
"                                                                                                                                ",
"                                                                                                                                ",
"                                                                                                                                ",
"                                                                                                                                ",
"                                                                                                                                ",
"                                                                                                                                ",
"                                                                                                                                ",
"                                                                                                                                ",
"                                                                                                                                ",
"                                                                                                                                ",
"                                                                                                                                ",
"                                                                                                                                "
};
